<?xml version="1.0" encoding="UTF-8" standalone="no"?>
<!-- Created with Inkscape (http://www.inkscape.org/) -->

<svg
   width="64"
   height="64"
   viewBox="2.5 2 18 18"
   version="1.1"
   id="svg12036"
   xmlns:xlink="http://www.w3.org/1999/xlink"
   xmlns="http://www.w3.org/2000/svg"
   xmlns:svg="http://www.w3.org/2000/svg">
  <defs
     id="defs12033">
    <linearGradient
       xlink:href="#linearGradient11472"
       id="linearGradient11504"
       gradientUnits="userSpaceOnUse"
       x1="43.384098"
       y1="14.190421"
       x2="43.439217"
       y2="82.127831" />
    <linearGradient
       id="linearGradient11472">
      <stop
         style="stop-color:#1a9200;stop-opacity:1;"
         offset="0"
         id="stop11468" />
      <stop
         style="stop-color:#921d1d;stop-opacity:1;"
         offset="1"
         id="stop11470" />
    </linearGradient>
    <linearGradient
       xlink:href="#linearGradient11472"
       id="linearGradient12114"
       gradientUnits="userSpaceOnUse"
       x1="43.384098"
       y1="14.190421"
       x2="43.439217"
       y2="82.127831" />
  </defs>
  <g
     id="layer1">
    <g
       id="g11502"
       transform="matrix(0.19928356,0,0,0.19928356,3.6972509,3.2763845)">
      <path
         style="fill:currentColor;fill-opacity:1;stroke:none;stroke-width:0.744943;stroke-linejoin:round;stroke-miterlimit:2.5;stroke-dasharray:none;stroke-opacity:1"
         d="m 45.302261,51.239878 c 0,0 1.089562,-0.398793 1.996804,2.091426 0.907194,2.490263 2.816523,5.057743 1.838772,7.145964 -0.977791,2.088214 -5.711109,6.798893 -6.593124,6.839477 -0.881992,0.04078 -1.280922,-0.347299 -2.009331,-1.741092 -0.72845,-1.393803 -4.102193,-5.232613 -3.043351,-6.850088 1.058842,-1.617478 4.810624,-5.033556 5.801026,-5.73151 0.990403,-0.697952 2.009204,-1.754177 2.009204,-1.754177 z"
         id="path11969" />
      <path
         style="fill:currentColor;fill-opacity:1;stroke:none;stroke-width:0.81793;stroke-linejoin:round;stroke-miterlimit:2.5;stroke-dasharray:none;stroke-opacity:1"
         d="m 43.204476,35.488926 c 0,0 0.735357,-0.932467 2.12629,1.390404 1.390882,2.322921 3.998551,4.965597 3.070175,7.167535 -0.928426,2.201938 -6.406499,7.451995 -7.464389,7.6209 -1.057839,0.169105 -1.246716,-0.06875 -2.291057,-1.336639 -1.044391,-1.267891 -2.443503,-6.443933 -1.361126,-8.19355 1.082378,-1.749618 2.069414,-3.7824 3.179289,-4.615334 1.109876,-0.832933 2.740818,-2.033316 2.740818,-2.033316 z"
         id="path11508" />
      <path
         id="path11478"
         style="fill:url(#linearGradient12114);fill-opacity:1;stroke-width:0.0627703"
         d="m 42.538489,9.2831543 c -0.201778,-6.45e-5 -0.399737,9.629e-4 -0.590662,0.0031 -0.509131,0.0057 -0.967401,0.019521 -1.308964,0.042375 -3.292029,0.22028 -6.775601,1.0491687 -10.026261,2.3853847 -0.795578,0.327024 -3.311785,1.562889 -3.604431,1.770434 -0.09163,0.06497 -0.182735,0.118339 -0.202055,0.118339 -0.01935,0 -0.283234,0.15037 -0.586528,0.334347 -3.442552,2.088253 -6.424193,4.667613 -9.155513,7.920447 -1.616812,1.925511 -2.823341,3.703606 -4.044715,5.960359 -2.290481,4.232196 -3.7411649,8.838038 -4.2317827,13.435356 -0.2234355,2.093629 -0.2557983,2.674757 -0.2557983,4.582149 0,3.719638 0.6582418,7.859972 1.792655,11.277865 0.718479,2.164704 1.749944,4.539883 2.741952,6.313309 l 0.289905,0.517798 h 0.810803 0.81132 L 14.838888,63.70929 c -1.641583,-2.769121 -3.05619,-6.167887 -3.794601,-9.117273 -0.88971,-3.553694 -1.2100698,-6.249496 -1.1373982,-9.572543 0.021874,-1.001184 0.056457,-1.912481 0.076998,-2.024682 l 0.037207,-0.203605 h 5.046203 c 2.775225,0 5.04397,0.02114 5.04207,0.04702 -0.01091,0.151686 -1.423925,1.021943 -2.195215,1.351856 -0.882885,0.377644 -1.445757,0.479778 -2.571936,0.468188 -0.86888,-0.0089 -1.015983,0.0057 -1.37821,0.133842 -1.014828,0.359153 -1.542146,0.890837 -2.002979,2.020548 -0.380202,0.932064 -1.039362,2.94024 -0.983402,2.9962 0.03366,0.03367 2.206359,-0.408279 3.030822,-0.6165 0.8323,-0.210197 1.276506,-0.446797 1.682068,-0.895552 0.434903,-0.481219 0.735717,-1.100264 0.966349,-1.989543 l 0.10542,-0.40721 0.498161,-0.132292 c 1.502551,-0.39885 3.008381,-1.272947 4.256588,-2.471167 0.271626,-0.260751 0.959998,-0.98261 1.529622,-1.604036 0.569627,-0.621424 1.279655,-1.363565 1.577682,-1.649512 0.872396,-0.837032 1.860934,-1.441735 2.958475,-1.809709 l 0.533301,-0.179317 2.41484,-0.02015 c 1.328199,-0.01117 2.401674,-0.0082 2.385384,0.0067 -0.0163,0.01489 -0.312086,0.240329 -0.657324,0.500745 -0.345232,0.260406 -0.823832,0.672322 -1.063501,0.915706 l -0.435632,0.442867 -0.914157,0.289388 c -0.987411,0.312856 -2.642116,0.874389 -3.214274,1.09089 -0.350534,0.132639 -0.36188,0.144994 -0.884183,0.963765 -0.290988,0.456158 -0.646975,1.028754 -0.79065,1.272274 l -0.260966,0.442867 -0.0062,0.875399 c -0.02059,2.986848 0.0079,4.497167 0.08423,4.464327 0.380102,-0.163502 4.658055,-1.894415 4.857068,-1.965255 0.29687,-0.105685 0.446211,-0.251858 0.665075,-0.651123 0.0853,-0.155607 0.427862,-0.710863 0.761194,-1.233517 l 0.605648,-0.949812 v -1.882056 -1.882056 l 0.518314,-0.469738 c 0.97488,-0.884042 1.806628,-1.421333 2.34301,-1.513603 0.383976,-0.06605 0.818396,0.368679 1.25212,1.25367 0.436052,0.889749 0.477917,1.179141 0.530717,3.664376 0.04435,2.087093 0.05739,2.270374 0.207739,2.887679 0.289193,1.187357 0.604249,1.936056 1.203544,2.859257 0.394059,0.607034 1.086273,1.365216 1.204578,1.319816 0.121055,-0.04646 0.900203,-0.678488 0.900203,-0.730188 0,-0.02393 -0.145365,-0.223729 -0.322977,-0.443901 -0.459564,-0.569668 -0.964008,-1.354517 -1.18029,-1.83658 -1.307318,-2.913758 -0.733753,-6.15764 1.576648,-8.920386 0.669764,-0.800903 1.81188,-1.885146 2.908349,-2.760555 2.835734,-2.264016 3.73314,-3.169495 4.543392,-4.583182 0.390505,-0.68134 0.554239,-1.098965 0.683163,-1.743047 0.190236,-0.950354 -0.08702,-1.69282 -0.772563,-2.069641 -0.556823,-0.306059 -1.293386,-0.191582 -2.351278,0.364319 -0.243568,0.127997 -0.457906,0.217494 -0.476456,0.198954 -0.05561,-0.0556 0.341288,-0.793066 0.751375,-1.39578 0.429351,-0.631039 1.224072,-1.498364 1.506368,-1.644344 0.101667,-0.05258 0.385115,-0.151328 0.629936,-0.219108 0.620885,-0.171898 1.413035,-0.555426 1.720308,-0.833024 0.32471,-0.293352 0.622333,-0.912102 0.740007,-1.537891 0.0996,-0.529656 0.270705,-3.078882 0.206705,-3.078882 -0.04033,0 -0.574055,0.205506 -1.500166,0.577743 -0.90792,0.364919 -1.666618,0.793752 -1.995227,1.12758 -0.583574,0.592817 -0.807312,1.217231 -0.871782,2.434993 l -0.04134,0.781864 -0.591178,0.661976 c -0.637881,0.713595 -1.0145,1.214712 -1.433505,1.90841 l -0.266133,0.4408 -0.428915,0.0062 c -0.739268,0.01094 -1.347832,0.392606 -1.703772,1.068152 -0.232056,0.440453 -0.239826,1.174653 -0.01705,1.627291 0.18372,0.373281 0.532196,0.733523 0.896586,0.927075 0.387446,0.205794 1.218535,0.205851 1.606104,0 0.657227,-0.349085 1.064796,-0.953627 1.126546,-1.670699 0.04092,-0.475098 0.0939,-0.579785 0.347782,-0.685746 0.538204,-0.224641 1.024886,-0.173517 1.381311,0.145211 0.190586,0.170411 0.201121,0.203912 0.197921,0.609265 -0.0044,0.510114 -0.204909,0.994455 -0.728638,1.761649 -0.478704,0.701249 -1.914457,2.106317 -3.222025,3.15278 -1.686119,1.349432 -2.375896,1.950051 -3.127975,2.723864 -0.712101,0.732685 -1.468889,1.682731 -1.775602,2.228805 -0.09952,0.177171 -0.202003,0.321911 -0.227893,0.321944 -0.02589,3.8e-5 -0.04754,-1.715904 -0.04754,-3.813204 -3.99e-4,-4.058173 -0.02593,-4.49881 -0.315743,-5.445146 -0.293802,-0.959362 -0.725079,-1.682408 -1.652612,-2.769856 -0.437684,-0.51315 -0.815063,-1.256837 -0.96635,-1.906344 -0.09755,-0.418901 -0.109554,-0.865232 -0.109554,-4.048848 v -3.578077 l 0.1757,-0.502295 c 0.172774,-0.493861 0.596311,-1.302655 1.297595,-2.478918 0.195535,-0.327975 0.829294,-1.390815 1.408183,-2.361613 l 1.051616,-1.765267 0.387573,-0.04082 c 0.213088,-0.02248 0.769003,-0.08194 1.235066,-0.132292 0.888633,-0.09601 1.443323,-0.118474 1.443323,-0.05839 0,0.01958 -0.348907,0.563198 -0.775663,1.208195 -0.426757,0.644993 -0.996175,1.5117 -1.265039,1.92598 l -0.488859,0.752926 0.01344,1.810742 c 0.0072,0.995807 0.04048,1.882493 0.0739,1.970423 0.05738,0.150909 0.548801,0.808738 1.412317,1.891357 1.413292,1.771887 1.595001,2.030326 1.593701,2.261361 -0.0033,0.505586 -0.514443,1.38752 -1.25212,2.161108 l -0.419096,0.43925 -0.206189,-0.150895 c -0.279927,-0.205323 -0.318327,-0.336838 -0.318327,-1.093991 0,-1.14564 -0.21496,-1.750331 -0.851627,-2.395202 -0.323706,-0.327878 -0.517314,-0.452689 -1.256254,-0.809253 -1.068144,-0.51541 -2.059138,-0.977751 -2.086178,-0.972551 -0.01099,0.002 -0.01785,0.64655 -0.01395,1.431954 0.0094,2.061292 0.165149,2.652997 0.860412,3.272669 0.442456,0.394351 0.879512,0.625931 1.774052,0.941028 0.506866,0.178532 0.773852,0.310784 0.923458,0.455786 0.115802,0.112239 0.21084,0.231293 0.21084,0.264583 0,0.03333 -0.170017,0.280275 -0.377755,0.548804 -0.710691,0.918693 -1.064018,1.885519 -1.064018,2.912484 0,0.95989 0.278043,1.777691 0.940511,2.767272 0.32643,0.4876 1.348612,1.564175 1.858802,1.958021 l 0.258899,0.199987 0.507979,-0.413411 0.508496,-0.412895 -0.359151,-0.318327 c -1.093713,-0.969356 -1.936967,-2.007036 -2.214852,-2.725931 -0.209504,-0.541971 -0.238888,-1.385788 -0.06821,-1.947685 0.207841,-0.684256 0.524493,-1.12606 1.769918,-2.465483 1.37446,-1.4782 1.707902,-1.970523 2.054138,-3.033406 0.248059,-0.761474 0.210909,-0.700998 1.227315,-1.970939 0.408142,-0.50995 1.054872,-1.332914 1.437122,-1.828829 l 0.694531,-0.901754 0.05064,-0.479557 c 0.02769,-0.263597 0.05184,-1.118129 0.05374,-1.899109 l 0.0031,-1.420069 -0.303341,-0.463021 c -0.166678,-0.254726 -0.745699,-1.13472 -1.286743,-1.955436 -0.541053,-0.820716 -0.983402,-1.509989 -0.983402,-1.531689 0,-0.05114 0.915421,0.01042 2.102714,0.141076 0.70532,0.07762 0.96254,0.129596 1.02526,0.206706 0.04607,0.05661 0.495,0.794905 0.997355,1.640727 0.502351,0.845828 1.091427,1.837944 1.309481,2.205033 0.218053,0.367092 0.450251,0.762775 0.515731,0.879016 0.06547,0.116238 0.262577,0.465472 0.438216,0.77618 0.175638,0.310712 0.384661,0.762411 0.464571,1.004073 l 0.145211,0.439767 v 3.797701 3.797184 l -0.146244,0.408244 c -0.248427,0.691129 -0.557504,1.208004 -1.132231,1.894458 -0.619456,0.739879 -0.92433,1.211348 -1.193725,1.846399 -0.528813,1.246635 -0.569725,1.68503 -0.571025,6.160864 -6.4e-4,2.045516 -0.02217,3.719138 -0.04806,3.718636 -0.0259,-5.02e-4 -0.12154,-0.134684 -0.21239,-0.298173 -0.453305,-0.815667 -1.69729,-2.272914 -2.69906,-3.161047 -0.499338,-0.4427 -0.450392,-0.449527 -1.101225,0.157096 l -0.365352,0.340548 0.188102,0.13901 c 0.340243,0.251609 1.904269,1.882689 2.265495,2.362646 0.887251,1.178877 1.374192,2.131888 1.652612,3.232878 0.163109,0.644857 0.163201,0.811777 -10e-4,1.312064 -0.264527,0.805777 -0.82156,1.71377 -1.580782,2.577621 -0.75959,0.864257 -1.738694,1.652504 -4.313432,3.471622 -1.75179,1.237685 -2.37805,1.734593 -3.138309,2.489771 -0.988994,0.982369 -1.591772,1.942091 -2.005046,3.194637 -0.267614,0.811083 -0.36571,1.451116 -0.43925,2.856156 -0.0747,1.427039 -0.244913,2.202149 -0.679545,3.098002 -0.851217,1.754499 -2.172268,2.932784 -3.737756,3.33313 -0.914147,0.233784 -2.26596,0.265486 -10.321851,0.243396 -4.185972,-0.01146 -7.610911,-0.0041 -7.610905,0.01654 1.3e-5,0.04144 0.672901,1.127917 0.744141,1.201477 0.02458,0.02538 1.382511,0.06013 3.017387,0.077 1.634883,0.01687 2.980919,0.03905 2.991549,0.04961 0.0106,0.0106 -0.741047,0.780987 -1.670699,1.71204 -0.929659,0.931069 -1.689927,1.707183 -1.689303,1.724443 5.15e-4,0.01726 0.19337,0.242017 0.428914,0.499194 l 0.428398,0.467672 2.057756,-2.084111 c 1.131823,-1.146153 2.099122,-2.08411 2.149222,-2.08411 0.05012,0 0.782852,0.370122 1.628325,0.822172 1.520448,0.812954 1.920128,1.024762 1.950268,1.034562 0.0085,0.0028 -0.09657,0.22201 -0.233577,0.486792 -0.137024,0.264775 -0.295317,0.643803 -0.351917,0.842326 -0.05657,0.198524 -0.125659,0.385022 -0.153479,0.414962 -0.02784,0.02993 -0.786944,0.148267 -1.686718,0.262516 -0.899785,0.114236 -1.69974,0.227968 -1.77767,0.252698 -0.237553,0.0754 -1.960155,1.245506 -2.123901,1.442806 -0.07389,0.08904 -0.02804,0.155519 0.367936,0.535368 0.248722,0.238583 0.467475,0.434082 0.486275,0.434082 0.0188,0 0.294316,-0.192922 0.611849,-0.428915 1.045311,-0.776904 0.942198,-0.735721 2.272213,-0.917773 0.655946,-0.08979 1.256089,-0.176727 1.333769,-0.193787 0.182,-0.04002 0.182063,0.05633 -5.17e-4,0.645439 -0.137546,0.443817 -0.165259,0.479681 -1.161169,1.51722 -0.561012,0.584459 -1.018293,1.086074 -1.016993,1.11466 0.0023,0.04205 0.538808,0.480332 0.899687,0.734839 0.05404,0.03811 0.280461,-0.154149 0.73949,-0.627868 1.029123,-1.062046 1.458837,-1.531509 1.536857,-1.677934 0.08825,-0.165594 0.376824,-1.16053 0.676444,-2.331641 0.35735,-1.39674 0.798702,-2.147623 1.574065,-2.677872 0.81664,-0.558487 3.886146,-2.065794 4.927864,-2.420008 0.392218,-0.13336 1.269846,-0.670758 1.757516,-1.07642 0.492664,-0.409812 0.836823,-0.775471 1.27279,-1.351855 l 0.327629,-0.433566 0.01757,1.029912 c 0.0098,0.566327 -0.0095,1.208439 -0.04341,1.427303 -0.168423,1.089297 -1.243906,2.489438 -2.2965,2.989481 -0.277209,0.131692 -1.169098,0.398377 -2.41639,0.722437 -1.932433,0.502064 -3.016875,0.799959 -3.057695,0.840775 -0.0112,0.01119 -0.01272,0.992492 -0.0036,2.180229 l 0.01654,2.159042 0.611849,-0.633037 0.612366,-0.633036 0.02532,-1.030428 c 0.01404,-0.566601 0.02832,-1.048199 0.03152,-1.070219 0.0032,-0.02205 0.111865,-0.05912 0.241329,-0.08217 0.129465,-0.02305 0.706287,-0.166985 1.282092,-0.320393 0.575815,-0.153417 1.070311,-0.279066 1.098641,-0.279053 0.02834,2.6e-5 0.05761,0.254547 0.06511,0.565857 l 0.01344,0.566373 -0.515731,0.556556 c -0.283719,0.306129 -1.492358,1.569399 -2.686141,2.80758 -2.313022,2.399028 -2.663346,2.774372 -2.624646,2.812232 0.01347,0.01319 0.236132,0.151413 0.49506,0.307474 0.258928,0.156051 0.514031,0.285755 0.566891,0.288355 0.09024,0.0042 0.603348,-0.517503 3.730004,-3.79305 0.692041,-0.72499 1.490567,-1.554161 1.774569,-1.842265 l 0.516764,-0.523482 0.01705,-1.039213 0.01705,-1.038697 0.478524,-0.201021 c 0.467177,-0.196443 1.39557,-0.787664 1.48518,-0.945679 0.02475,-0.04365 0.158007,-0.201327 0.296106,-0.350366 l 0.251148,-0.270784 0.03152,1.201993 0.03101,1.201994 0.611332,-0.587561 0.611333,-0.588078 0.0036,-3.330546 c 0.0021,-1.831681 0.02385,-3.330136 0.04806,-3.329512 0.02424,3.93e-4 0.207087,0.235798 0.406177,0.522965 0.19909,0.287177 0.49178,0.67534 0.650606,0.86248 0.725791,0.855209 2.244186,2.341015 2.354378,2.303735 0.0286,-0.0097 0.264815,-0.187152 0.524516,-0.394291 l 0.472323,-0.376721 -0.740524,-0.72192 c -1.804578,-1.759621 -2.799688,-3.132785 -3.273702,-4.517037 -0.241648,-0.705655 -0.238947,-0.91256 0.01964,-1.500683 0.580741,-1.320852 1.668595,-2.605151 3.331063,-3.931543 0.412713,-0.329282 1.511966,-1.141638 2.442745,-1.805575 2.78282,-1.985021 3.877726,-3.049176 4.656047,-4.526855 0.73062,-1.38711 0.969839,-2.708259 0.970483,-5.355746 6.18e-4,-2.020596 0.110718,-2.6863 0.584461,-3.533634 0.261448,-0.467626 0.836344,-1.067119 1.023193,-1.067119 0.480672,0 1.630726,0.717399 2.456181,1.532207 l 0.580843,0.573608 v 1.858285 1.857767 l 0.540535,0.871265 c 0.82269,1.326196 1.024095,1.632358 1.141016,1.732711 0.155575,0.13354 5.22477,2.203229 5.22087,2.131653 -0.0013,-0.02387 0.0056,-1.229432 0.0155,-2.679423 l 0.01809,-2.636532 -0.340548,-0.564823 c -0.515474,-0.85428 -1.229471,-1.937471 -1.328601,-2.015381 -0.04844,-0.03807 -1.061648,-0.387817 -2.251542,-0.777214 l -2.163692,-0.707967 -0.281637,-0.313676 c -0.312321,-0.347369 -1.096369,-0.997847 -1.538924,-1.277441 -0.157487,-0.0995 -0.286224,-0.203691 -0.286288,-0.231511 -6.5e-5,-0.02782 1.066097,-0.04059 2.369365,-0.02842 2.638772,0.0246 2.626081,0.02266 3.679879,0.49041 1.163271,0.516347 1.945276,1.154265 3.413745,2.785876 1.69436,1.882614 2.69162,2.779672 3.913973,3.519165 0.627859,0.379842 1.534207,0.767353 2.158524,0.922941 0.276185,0.06883 0.532838,0.157674 0.570508,0.197404 0.03764,0.0397 0.131306,0.297944 0.208256,0.574125 0.324807,1.165754 0.923429,1.984439 1.723926,2.359029 0.458717,0.21466 2.325274,0.681831 3.63647,0.910022 0.28305,0.04926 0.291427,0.137195 -0.115755,-1.166337 -0.763189,-2.443299 -1.242225,-3.221331 -2.263428,-3.676261 -0.577215,-0.257161 -0.836378,-0.297058 -2.002461,-0.306958 -1.089232,-0.0092 -1.151122,-0.01633 -1.725993,-0.208256 -0.327975,-0.109497 -0.818904,-0.313241 -1.09089,-0.452686 -0.4818,-0.247012 -1.626655,-1.007257 -1.703255,-1.131197 -0.02504,-0.04056 1.710835,-0.06201 5.020882,-0.06201 4.759119,0 5.061001,0.0062 5.102531,0.109554 0.07936,0.197618 0.05156,4.952426 -0.03411,5.821866 -0.123103,1.249449 -0.381006,3.058366 -0.550354,3.860747 -0.431477,2.044383 -1.151445,4.465214 -1.845366,6.204789 -0.281281,0.705167 -1.279971,2.903998 -1.443839,3.179134 -0.06169,0.103573 -0.218806,0.386203 -0.349333,0.627869 -0.130526,0.241661 -0.357525,0.636834 -0.504362,0.878499 l -0.267167,0.439766 0.789099,0.01757 c 0.433923,0.0097 0.812643,-0.006 0.841293,-0.03462 0.25177,-0.251775 1.605783,-3.03601 2.235522,-4.596618 1.342958,-3.328081 2.253245,-7.384281 2.50734,-11.173479 0.07695,-1.147173 0.05612,-4.39397 -0.03514,-5.492171 C 76.666808,37.947137 75.435584,33.395844 73.469417,29.375468 72.328151,27.041829 71.265365,25.279772 69.919246,23.489006 66.429259,18.846195 62.087792,15.135911 57.393396,12.784233 55.318079,11.744594 54.167412,11.294535 51.466626,10.466028 50.470826,10.160545 48.738832,9.7902235 47.480823,9.6138835 47.083801,9.5582304 46.476272,9.4717431 46.131034,9.4216471 45.544538,9.3365765 43.950928,9.2836058 42.538489,9.2831543 Z m -5.807914,2.0334677 c 0.0049,-9.8e-5 0.0077,1.3e-4 0.0088,10e-4 0.01301,0.01127 -0.476092,0.855008 -1.086756,1.874821 -0.610654,1.019813 -1.125119,1.854151 -1.143599,1.854151 -0.04734,0 0.04627,-3.16127 0.09508,-3.21014 0.04725,-0.04733 1.975699,-0.516838 2.126486,-0.519865 z m 12.251965,0.0031 c 0.166578,0.0023 2.116347,0.482339 2.170927,0.536919 0.01813,0.01818 0.02532,0.734201 0.01602,1.591634 l -0.01654,1.559078 -0.572058,-0.937411 c -0.314743,-0.515691 -0.762909,-1.262826 -0.995805,-1.659847 -0.232888,-0.397019 -0.476729,-0.797804 -0.541569,-0.890901 -0.0648,-0.0931 -0.09687,-0.182141 -0.07131,-0.197921 0.0015,-9.51e-4 0.005,-0.0016 0.01033,-0.0016 z m -6.774264,0.683163 v 2.086694 c 0,1.147771 -0.0074,2.085788 -0.01602,2.085144 -0.0325,-0.0034 -1.523028,-1.697291 -1.541508,-1.751831 -0.01064,-0.03139 0.335389,-0.588902 0.768945,-1.238684 z m 1.3224,0.158647 c 0.01235,-3.7e-5 0.02737,0.01493 0.04496,0.03669 0.05927,0.07332 0.333597,0.46484 0.609782,0.869714 0.276189,0.404877 0.593699,0.858417 0.7059,1.008207 0.112204,0.149792 0.204122,0.286735 0.204122,0.304375 0,0.01763 -0.327805,0.407994 -0.728638,0.86713 -0.400833,0.459133 -0.768001,0.876009 -0.815971,0.926559 -0.07458,0.07855 -0.08717,-0.2134 -0.08527,-2.008663 0.0016,-1.652225 0.0056,-2.003834 0.06511,-2.004012 z m -10.33787,0.120406 c 0.03052,0.0015 0.05855,1.151163 0.06305,2.576587 0.0045,1.415466 0.0078,2.572719 0.0078,2.571419 0,-0.0011 -0.828106,-0.823162 -1.840198,-1.826762 -1.012099,-1.003599 -1.829567,-1.835326 -1.816427,-1.848466 0.177345,-0.177345 3.35836,-1.483858 3.585828,-1.472778 z m 19.302181,0.0026 c 0.220378,0 3.485788,1.323652 3.635954,1.473812 0.01246,0.01247 -0.805751,0.843289 -1.818494,1.846399 -1.01275,1.00311 -1.848651,1.825085 -1.857251,1.825729 -0.0086,9.02e-4 -0.0155,-1.15647 -0.0155,-2.571936 0,-1.441477 0.02432,-2.574004 0.05529,-2.574004 z m 4.909778,2.119768 c 0.145491,0.03905 1.290807,0.711778 2.190564,1.286743 1.170713,0.748116 1.799977,1.196662 2.777608,1.979207 l 0.737423,0.590145 v 5.759338 5.759856 l -0.946196,1.013374 c -0.520603,0.55738 -0.975768,1.013375 -1.011308,1.013375 -0.03555,0 -0.04865,-0.0634 -0.02945,-0.141076 0.01917,-0.07767 0.05434,-0.432756 0.07855,-0.789099 l 0.04393,-0.648023 0.241329,-0.193787 c 0.56086,-0.45072 0.717272,-1.24129 0.366386,-1.853116 -0.57644,-1.005128 -1.956455,-0.975014 -2.4691,0.05374 -0.308793,0.619656 -0.187404,1.223229 0.350366,1.742013 0.268609,0.259145 0.282012,0.288387 0.258382,0.564823 -0.06135,0.718046 -0.173464,1.270042 -0.351399,1.733744 -0.406126,1.058409 -1.034094,1.437543 -4.590935,2.771407 -2.767427,1.037823 -3.760799,1.513698 -4.619873,2.213302 v 5.17e-4 c -0.189882,0.154635 -0.494032,0.438284 -0.675927,0.630452 l -0.33073,0.349333 0.01654,-1.067118 0.01705,-1.067119 0.243913,-0.455786 c 0.276288,-0.517101 0.924804,-1.221534 1.53634,-1.668632 l 0.398942,-0.291972 h 0.868681 c 0.750904,0 0.935713,-0.02117 1.362708,-0.156063 0.875617,-0.2766 1.314409,-0.681706 1.810225,-1.669665 0.321458,-0.640512 1.148394,-2.630847 1.092957,-2.630847 -0.02515,0 -0.410056,0.0284 -0.855245,0.06305 -2.541663,0.197764 -3.373031,0.433895 -4.006474,1.138432 -0.361696,0.402291 -0.558926,0.813679 -0.762228,1.591634 -0.160388,0.613764 -0.170702,0.632186 -0.458886,0.83044 -0.162104,0.111512 -0.513708,0.404506 -0.781348,0.651123 -0.267641,0.246611 -0.493595,0.43766 -0.502295,0.42478 -0.0086,-0.01289 0.0032,-0.574256 0.02635,-1.247469 0.0381,-1.110119 0.05934,-1.280469 0.227893,-1.830379 0.102207,-0.333484 0.310614,-0.826562 0.463021,-1.096057 0.336281,-0.594627 0.976266,-1.26589 1.421619,-1.490865 0.666346,-0.336594 0.835096,-0.35295 3.595646,-0.35295 1.944921,0 2.571503,-0.01867 2.645833,-0.07855 0.05357,-0.04315 0.742509,-0.855145 1.530656,-1.804541 0.788154,-0.949395 1.617843,-1.941137 1.844332,-2.204 0.226488,-0.262863 0.547189,-0.649802 0.712101,-0.859896 l 0.299723,-0.382406 -0.205672,-0.03359 c -0.261251,-0.04265 -1.449127,-0.180788 -3.28042,-0.381372 -0.78941,-0.08647 -1.447186,-0.169218 -1.461926,-0.183968 -0.01473,-0.01473 0.331374,-0.393329 0.768945,-0.841809 l 0.795301,-0.815455 0.319877,0.09457 c 0.766654,0.227673 1.600827,-0.175641 1.968872,-0.95188 0.394398,-0.831817 0.0044,-1.911697 -0.842843,-2.33319 -0.314411,-0.156636 -1.150387,-0.158004 -1.438672,-0.0026 -0.757182,0.408216 -1.131323,1.188483 -0.961698,2.005562 l 0.07338,0.352433 -1.052132,1.040247 c -0.578645,0.572207 -1.053416,1.040214 -1.054716,1.040246 -0.0015,3.2e-5 0.0056,-0.663504 0.01602,-1.474845 l 0.0186,-1.475362 -0.457854,-0.0047 c -0.252068,-0.0024 -0.536029,-0.01431 -0.630969,-0.02687 l -0.172599,-0.02274 v 2.193147 2.193148 l -0.706417,0.736906 c -0.388386,0.405347 -0.868,0.906401 -1.066085,1.113627 l -0.360185,0.376722 -10e-4,-2.387968 c -8.44e-4,-2.572023 0.01731,-2.749465 0.348299,-3.474207 0.08496,-0.186038 0.293248,-0.52468 0.463021,-0.752926 0.351181,-0.472156 4.058815,-4.189973 4.153235,-4.164603 z m -29.03492,0.01188 c 0.01248,-3.38e-4 0.02203,0.0015 0.02894,0.0052 0.13734,0.07387 3.701892,3.681564 3.966683,4.014742 0.285535,0.359295 0.564291,0.916551 0.733806,1.46606 0.125796,0.407053 0.132907,0.559678 0.129707,2.824634 l -0.0031,2.394686 -0.942061,-0.973067 c -0.518288,-0.53512 -0.983046,-1.031485 -1.032496,-1.102775 -0.07129,-0.102703 -0.09757,-0.532684 -0.12609,-2.071192 -0.0198,-1.067984 -0.05498,-1.959377 -0.07855,-1.980757 -0.04054,-0.03679 -3.080497,-0.936459 -4.436939,-1.313098 -0.345235,-0.09586 -0.903116,-0.257669 -1.239717,-0.359668 l -0.611849,-0.185519 v 0.234094 c 0,0.128892 0.04105,0.626734 0.09147,1.105876 0.05043,0.479145 0.150389,1.436019 0.222209,2.126485 0.248269,2.386758 0.441992,3.181004 1.087272,4.465361 0.340354,0.677421 0.853647,1.535258 1.37511,2.297534 l 0.375687,0.548804 h 2.613794 c 2.842275,-5.02e-4 3.036103,0.01804 3.662826,0.359151 0.478112,0.260223 0.963606,0.754505 1.301729,1.324467 0.57682,0.972325 0.819588,1.995365 0.819588,3.458187 v 0.903304 l -0.329695,-0.309542 c -0.181247,-0.170268 -0.53343,-0.471051 -0.782381,-0.668693 -0.437439,-0.347279 -0.456868,-0.374803 -0.581877,-0.813904 -0.293345,-1.030393 -0.533271,-1.467861 -1.068669,-1.949235 -0.503849,-0.453009 -1.197661,-0.662515 -2.729549,-0.824239 -1.494255,-0.15776 -1.935039,-0.177773 -1.899109,-0.08578 0.800819,2.049948 1.286635,3.040715 1.693437,3.455086 0.69207,0.704958 1.320591,0.927076 2.625679,0.927076 h 0.856279 l 0.403076,0.30489 c 0.522023,0.395179 1.233016,1.159214 1.449524,1.557011 0.27283,0.50127 0.363285,0.961509 0.363285,1.854668 0,0.441551 -0.02114,0.7992 -0.04703,0.7953 -0.0259,-0.004 -0.216602,-0.190154 -0.423747,-0.413928 -0.897825,-0.96993 -2.072203,-1.585214 -5.36298,-2.809648 -1.101319,-0.409784 -2.613755,-1.024899 -3.019971,-1.228349 -1.02745,-0.51457 -1.484221,-1.220403 -1.663981,-2.570386 -0.125626,-0.943523 -0.12531,-0.94676 0.154513,-1.144633 0.624363,-0.441512 0.729941,-1.451389 0.214457,-2.053621 -0.727627,-0.850066 -1.946157,-0.64788 -2.409672,0.399976 -0.241987,0.547042 -0.07458,1.147401 0.458886,1.646411 0.268599,0.251263 0.279352,0.275081 0.291972,0.658874 0.0072,0.21907 0.03678,0.568008 0.06563,0.775147 0.02881,0.207139 0.04541,0.384374 0.03721,0.393774 -0.02724,0.03102 -1.068419,-1.012377 -1.539957,-1.543058 l -0.463538,-0.521415 0.0083,-5.782076 0.0083,-5.782593 0.207739,-0.15658 c 0.114384,-0.08621 0.405841,-0.315477 0.647506,-0.509529 1.515378,-1.216805 4.511646,-3.133001 4.898409,-3.143478 z m 11.831836,1.414901 0.171565,0.193787 c 0.09438,0.106547 0.416197,0.459965 0.715202,0.784965 0.299012,0.324991 0.673818,0.749809 0.833024,0.944128 h -5.17e-4 l 0.289388,0.35295 -0.01705,1.169438 -0.01705,1.169437 -0.98857,-1.267622 -0.98857,-1.26814 10e-4,-1.039213 z m 5.265311,0 0.0026,1.072286 0.0026,1.071769 -0.549321,0.68833 c -0.30208,0.378534 -0.730401,0.927083 -0.95188,1.219047 h -5.16e-4 c -0.221472,0.291961 -0.42642,0.557892 -0.45527,0.590662 -0.02885,0.0328 -0.05219,-0.471456 -0.05219,-1.120345 0,-1.385206 -0.09158,-1.167122 1.000456,-2.384351 0.39906,-0.444809 0.788107,-0.882757 0.864547,-0.973067 z m -17.886247,3.365686 c 5.44e-4,2e-6 0.0013,2.43e-4 0.0021,5.17e-4 0.05179,0.01751 0.595403,0.185152 1.208195,0.372587 l 1.114144,0.341064 v 0.862997 c 0,0.474854 -0.0069,0.862607 -0.0155,0.861963 -0.0086,-9.08e-4 -0.552764,-0.557209 -1.208711,-1.236101 -0.6457,-0.668287 -1.134447,-1.20318 -1.100192,-1.203027 z m -6.323128,0.243396 c 0.02543,1.48e-4 0.05394,2.020171 0.06304,4.488615 0.0091,2.468437 0.0012,4.488098 -0.01757,4.488098 -0.01874,-7e-6 -0.435559,-0.409505 -0.926041,-0.910022 L 19.485111,26.596838 V 23.90553 21.214221 l 0.862996,-0.887284 c 0.474702,-0.487896 0.884075,-0.886897 0.909505,-0.886768 z m 43.14517,5.17e-4 c 0.02024,0 0.429682,0.400856 0.910022,0.890902 l 0.873332,0.890901 v 2.696476 2.696477 l -0.86248,0.885217 c -0.474409,0.48665 -0.883812,0.893841 -0.910022,0.905371 -0.02614,0.01151 -0.04754,-2.000766 -0.04754,-4.472078 0,-2.471316 0.01647,-4.493266 0.03669,-4.493266 z m -38.167696,0.259932 c 0.06758,-0.0093 1.919213,1.871352 2.168343,2.203483 l 0.129191,0.1726 -0.427881,5.16e-4 c -0.235384,1.3e-4 -0.703129,0.01854 -1.039729,0.04083 -0.43724,0.02897 -0.612366,0.02025 -0.612366,-0.03049 0,-0.03903 -0.05794,-0.582525 -0.129191,-1.208195 -0.07127,-0.625673 -0.11149,-1.155616 -0.0894,-1.177706 3.09e-4,-3.09e-4 5.01e-4,-9.6e-4 10e-4,-0.001 z m -8.010364,2.972429 0.0026,1.836063 0.0026,1.836064 h -1.349788 c -0.742259,0 -1.349789,-0.01206 -1.349789,-0.02687 0,-0.133778 1.874358,-2.703306 2.475818,-3.394108 z m 49.235755,0.05374 c 0.05757,-0.01057 0.408381,0.395811 0.978235,1.136882 0.626308,0.81449 1.702221,2.359762 1.702221,2.444812 0,0.02022 -0.593271,0.03669 -1.318265,0.03669 h -1.318266 v -1.720825 c 0,-0.946569 -0.01854,-1.772834 -0.04134,-1.836064 -0.014,-0.03885 -0.01453,-0.0593 -0.0026,-0.0615 z m -11.348662,0.403593 0.470773,0.03876 c 1.180721,0.09762 1.883643,0.187548 1.836063,0.235128 -0.0285,0.0285 -0.573357,0.275465 -1.210778,0.548804 -0.637426,0.273333 -1.554274,0.671427 -2.037602,0.8847 -0.483331,0.213275 -0.921297,0.404501 -0.973067,0.424781 -0.129252,0.05066 -0.0087,-0.08873 1.035595,-1.198377 z m -26.733768,0.07648 c 0.265107,0 0.35011,0.02636 0.42323,0.130742 0.05034,0.07188 0.442175,0.488178 0.870748,0.925524 0.428576,0.437343 0.800099,0.830709 0.825789,0.873849 0.02591,0.04319 0.02382,0.07683 -0.0041,0.07493 -0.02793,-0.002 -0.799238,-0.381935 -1.714107,-0.844393 C 28.864736,23.90505 28.024226,23.49483 27.912025,23.45594 27.799822,23.41707 27.70842,23.36367 27.70842,23.337084 c 0,-0.0485 1.047721,-0.130225 1.669666,-0.130225 z m -2.218986,1.21853 c 0.03,-0.03 4.102478,2.014247 4.216797,2.116667 0.03181,0.02879 0.04642,0.05956 0.03152,0.06873 -0.01496,0.0092 -0.677786,0.0093 -1.472778,0 l -1.44539,-0.01654 -0.680578,-1.069185 c -0.374265,-0.587943 -0.666313,-1.082935 -0.649573,-1.099675 z m 31.732947,0.129192 c 8.28e-4,6.5e-5 0.0012,2.14e-4 0.0016,5.16e-4 0.01104,0.01104 -0.356179,0.473123 -0.815971,1.026811 l -0.836125,1.006657 -1.471745,0.0041 c -0.850304,0.0022 -1.446766,-0.01981 -1.412316,-0.05168 0.113099,-0.104739 4.429373,-1.994719 4.534607,-1.986442 z m 8.061006,3.107303 2.017448,0.01654 2.017965,0.01654 0.39119,0.72192 c 0.215233,0.397021 0.391594,0.756811 0.392225,0.799951 5.6e-4,0.04414 -0.0752,0.07855 -0.173117,0.07855 -0.499368,0 -2.164406,0.54 -3.091284,1.002523 -1.381505,0.689395 -1.777275,1.01327 -4.109826,3.360002 -1.960754,1.972679 -2.378985,2.31071 -3.29489,2.66392 -0.260317,0.100391 -0.698967,0.225796 -0.974617,0.278536 -0.613607,0.117363 -1.596799,0.14275 -3.890719,0.101803 -1.992699,-0.03558 -1.949518,0.0076 -0.533817,-0.524 4.039467,-1.516727 5.378219,-2.340715 7.537007,-4.636926 0.528411,-0.562046 1.580178,-1.664609 2.336809,-2.450496 z m -50.223291,0.0016 h 1.999361 l 0.995288,1.020093 c 0.547464,0.561009 1.261035,1.302729 1.585433,1.647961 1.995609,2.123817 3.033906,3.075389 4.138766,3.7946 0.807028,0.525346 2.468445,1.269773 4.864819,2.179196 0.414285,0.15722 0.78009,0.310931 0.81287,0.341581 0.03486,0.03258 -0.4347,0.0557 -1.130163,0.05633 -0.654221,5.8e-4 -1.65555,0.01199 -2.225187,0.02532 -0.56964,0.01328 -1.148654,0.01359 -1.286743,0 -2.100102,-0.206318 -2.914819,-0.700136 -5.299419,-3.21169 -1.645902,-1.733525 -2.463266,-2.402624 -3.833874,-3.139343 -0.906942,-0.48749 -2.703669,-1.082105 -3.270601,-1.082105 -0.09989,0 -0.181385,-0.02283 -0.181385,-0.05116 0,-0.06462 0.679621,-1.395944 0.766878,-1.502234 0.04908,-0.05979 0.540558,-0.07855 2.063957,-0.07855 z m -3.49436,2.824634 h 0.211873 c 0.651301,0 2.144915,0.436782 3.056661,0.894002 0.507388,0.254447 1.527653,0.920525 1.666048,1.087272 0.06518,0.07855 -0.310908,0.09043 -2.855639,0.09043 H 12.38374 l 0.04444,-0.141594 c 0.02435,-0.07768 0.215965,-0.543639 0.425814,-1.035595 z m 59.096651,0.01188 c 0.06734,5.4e-4 0.112483,0.0077 0.127641,0.02325 0.08462,0.08693 0.895193,1.982161 0.861963,2.015381 -0.100482,0.100482 -5.902722,0.02746 -5.830652,-0.07338 0.08331,-0.116554 1.297229,-0.894849 1.739945,-1.115694 0.241665,-0.120559 0.739592,-0.32157 1.10691,-0.447001 0.606052,-0.206964 1.630546,-0.405475 1.994193,-0.40256 z m -52.611259,3.377055 0.949813,0.997355 c 0.522335,0.548687 1.177799,1.17761 1.456759,1.397331 l 0.507462,0.399459 -4.362524,0.01602 -4.363041,0.01602 -0.617017,0.759127 c -0.339559,0.417611 -0.782353,0.961462 -0.983919,1.208195 -0.201576,0.246739 -0.576932,0.723799 -0.834058,1.0604 l -0.467672,0.612366 h 2.662887 2.66237 l 0.266133,-0.298173 c 0.371497,-0.416442 0.945168,-1.033614 1.458309,-1.56838 l 0.435633,-0.454236 3.258715,-0.0031 c 1.79222,-0.0018 3.259483,0.0135 3.260783,0.03359 0.0012,0.0201 -0.175214,0.168124 -0.392224,0.329179 -0.449387,0.333519 -1.320176,1.1873 -2.399853,2.353345 l -0.74104,0.800468 H 15.80317 10.128064 l 0.03876,-0.329696 C 10.41037,39.14212 11.126686,35.952806 11.7135,34.317339 l 0.146244,-0.408244 3.93051,-0.01602 z m 46.316553,0 3.888135,0.01602 3.887618,0.01602 0.115238,0.345199 c 0.512751,1.533791 0.792769,2.572919 1.136365,4.215763 0.209418,1.001262 0.473745,2.629138 0.474389,2.92437 h -5.16e-4 l 5.16e-4,0.141076 h -5.677172 -5.677173 l -0.976168,-1.06097 C 62.203233,39.382035 61.567491,38.76187 60.991109,38.31084 l -0.330729,-0.258899 3.280937,-0.01757 3.280936,-0.01757 0.484209,0.519865 c 0.266434,0.285857 0.746651,0.807444 1.067118,1.159619 l 0.58291,0.640271 2.652035,0.0036 c 1.458621,0.0017 2.652034,-0.01181 2.652034,-0.02997 0,-0.06178 -2.383367,-3.019771 -2.792594,-3.465938 l -0.129191,-0.141077 -4.356324,-0.01602 -4.356323,-0.01602 0.37207,-0.277503 c 0.204454,-0.152657 0.88168,-0.781574 1.505335,-1.397331 z M 15.559257,37.95789 c 0.04517,-1.78e-4 0.09198,0 0.14056,0 0.597563,0 1.086239,0.0093 1.086239,0.02067 0,0.01136 -0.234587,0.26547 -0.521416,0.564824 l -0.521415,0.544153 h -1.047998 c -0.576263,0 -1.047481,-0.01751 -1.047481,-0.03876 0,-0.04525 0.733162,-0.897108 0.871264,-1.012341 0.06306,-0.05262 0.362696,-0.07589 1.040247,-0.07855 z m 54.465409,0.0021 c 0.546724,-0.0014 1.108487,0.0134 1.154452,0.04599 0.08724,0.06186 0.84491,0.999374 0.84491,1.045414 0,0.02003 -0.473347,0.03597 -1.051616,0.03566 l -1.051099,-5.17e-4 -0.470772,-0.510563 c -0.258928,-0.280821 -0.480429,-0.534687 -0.491959,-0.564307 -0.01271,-0.03272 0.519363,-0.05026 1.066084,-0.05168 z m -13.638444,3.701066 c 0.175858,0 2.168464,0.724282 2.257744,0.820622 0.05717,0.06169 0.328106,0.486381 0.601513,0.943611 l 0.497128,0.831474 0.01912,1.056266 c 0.01049,0.580896 0.0056,1.056267 -0.01085,1.056267 -0.01647,0 -0.144375,-0.162708 -0.283704,-0.361219 -0.955699,-1.361597 -2.455935,-3.452925 -2.76934,-3.860229 -0.205877,-0.267557 -0.345989,-0.486792 -0.311609,-0.486792 z m -27.134261,0.02377 c 0.0044,-4.36e-4 0.0069,-3.28e-4 0.0078,5.17e-4 0.01354,0.01354 -0.478262,0.723144 -1.092957,1.576648 -1.185188,1.645613 -1.834214,2.569006 -2.040185,2.903182 -0.06916,0.112203 -0.137056,0.204122 -0.150896,0.204122 -0.01385,0 -0.0248,-0.471384 -0.0248,-1.047482 V 44.2743 l 0.383956,-0.658874 c 0.723666,-1.240558 0.637404,-1.166548 1.845882,-1.5875 0.543603,-0.189352 1.004648,-0.336596 1.071252,-0.343132 z m 26.039238,0.611332 c 4.47e-4,-3.59e-4 0.0011,-4.87e-4 0.0016,0 0.03274,0.03273 0.706346,0.97239 1.72806,2.409672 0.758431,1.066915 1.113046,1.558106 1.381311,1.914095 0.09106,0.120829 0.18663,0.255033 0.21239,0.298173 0.07878,0.13213 -0.07569,0.08345 -1.105876,-0.351399 -0.590584,-0.249295 -1.024917,-0.470984 -1.080037,-0.550354 -0.179038,-0.257679 -0.748382,-1.189195 -0.916223,-1.499134 -0.156975,-0.289891 -0.1733,-0.387723 -0.20929,-1.281575 -0.0207,-0.515615 -0.02575,-0.928342 -0.01188,-0.939478 z m -24.930778,0.05839 c 0.02589,-0.0014 0.04703,0.397386 0.04703,0.886767 v 0.889868 l -0.580843,0.968934 c -0.319344,0.532832 -0.646273,1.012901 -0.72657,1.066601 -0.0803,0.05369 -0.55589,0.262085 -1.056783,0.463538 -0.500903,0.201457 -0.935373,0.366386 -0.965833,0.366386 -0.03046,0 0.1625,-0.306755 0.428914,-0.681613 0.266417,-0.374855 1.006694,-1.41864 1.645378,-2.319755 0.638683,-0.901121 1.182822,-1.639426 1.208712,-1.640726 z m 17.466117,4.118095 c 0.05544,0.001 0.0015,0.200118 -0.147278,0.618566 -0.232161,0.652879 -0.488646,1.148936 -0.88315,1.707907 -0.795796,1.12756 -1.619473,1.83059 -4.856551,4.146 -1.310035,0.937031 -2.150146,1.619845 -2.852022,2.317688 -0.340744,0.338775 -0.766403,0.810854 -0.946196,1.049031 -0.179792,0.238185 -0.327112,0.387976 -0.327112,0.332796 0,-0.201024 0.334972,-1.155221 0.580327,-1.653129 0.652913,-1.325028 1.608793,-2.259152 4.153235,-4.0566 2.760708,-1.950217 4.120863,-3.082059 4.943884,-4.114994 0.182413,-0.22894 0.291745,-0.348057 0.334863,-0.347265 z m -1.008724,5.653918 -0.283187,0.243913 c -0.155774,0.134274 -0.375842,0.322039 -0.489376,0.417029 l -0.206705,0.172599 0.321427,0.360701 c 1.74824,1.960975 2.33062,4.7307 1.493966,7.10861 -0.382218,1.086324 -0.837208,1.847089 -1.782837,2.982247 -0.900878,1.08143 -1.543052,1.66414 -4.045748,3.671611 -1.796849,1.441287 -2.299162,1.867861 -3.507796,2.978113 -1.611469,1.480284 -3.390773,3.271651 -4.243152,4.27209 -1.033774,1.21336 -3.981152,4.894707 -3.981152,4.972307 0,0.05532 1.026197,0.523498 1.142049,0.520898 0.02395,-5.08e-4 0.291536,-0.304798 0.594795,-0.675928 0.806464,-0.98693 1.289195,-1.550821 1.348755,-1.574581 0.02885,-0.01151 0.05271,0.644083 0.05271,1.456759 v 1.477946 l 0.517798,0.161747 c 0.28482,0.0891 0.567469,0.177047 0.627869,0.195337 0.10335,0.03131 0.109554,-0.11521 0.109554,-2.4722 v -2.505791 l 0.61805,-0.715718 c 0.339758,-0.393641 0.747987,-0.856776 0.907438,-1.029395 l 0.289905,-0.313676 0.0026,3.741891 0.0026,3.74189 0.517797,0.102836 c 0.28482,0.05652 0.567469,0.102862 0.627869,0.102836 0.103444,-5.1e-5 0.110071,-0.253967 0.110071,-4.445206 v -4.44469 l 0.643371,-0.625285 c 0.353867,-0.343995 0.882511,-0.845761 1.175123,-1.115177 0.457958,-0.421659 0.538926,-0.473941 0.580326,-0.375171 0.02644,0.0631 0.229645,0.84905 0.451652,1.746663 0.222007,0.897613 0.424275,1.688466 0.449585,1.757516 0.05247,0.143229 0.360591,0.538087 0.79685,1.021643 l 0.299207,0.331762 -0.920357,0.986503 c -0.506035,0.542718 -0.97256,1.071551 -1.03663,1.175122 -0.107346,0.173527 -0.116788,0.35194 -0.116788,2.272213 v 2.084111 l 0.329695,0.02274 -10e-4,5.17e-4 c 0.181248,0.01268 0.463886,0.02822 0.627868,0.03462 l 0.298174,0.01137 V 80.10002 78.239669 l 0.353983,-0.415479 c 0.194602,-0.228298 0.577695,-0.651338 0.851111,-0.940511 l 0.49661,-0.526066 0.425814,0.463021 c 0.234054,0.254647 0.613569,0.674864 0.84336,0.933793 l 0.417545,0.470772 10e-4,1.876888 5.16e-4,1.876372 0.605131,-0.04238 c 0.332965,-0.02342 0.62569,-0.05469 0.65009,-0.06976 0.04888,-0.0302 0.01495,-3.766581 -0.03721,-4.100008 -0.03356,-0.214576 -0.59853,-0.89548 -1.573547,-1.896009 l -0.460437,-0.472322 0.469738,-0.532267 c 0.258092,-0.292766 0.524996,-0.645322 0.593246,-0.783415 0.06826,-0.138093 0.312497,-0.999736 0.542602,-1.914612 0.230107,-0.91487 0.427984,-1.674162 0.440284,-1.687752 0.03134,-0.03462 0.676758,0.538927 1.579748,1.404048 l 0.768429,0.735873 v 4.486031 c 0,4.242906 0.0057,4.484185 0.109554,4.453475 0.10112,-0.02989 1.12872,-0.22686 1.18339,-0.22686 0.01314,0 0.03141,-1.673626 0.04031,-3.719153 l 0.01602,-3.719152 0.714685,0.81597 c 0.392958,0.448811 0.780633,0.902938 0.861963,1.009241 l 0.148312,0.19327 0.0067,2.490287 c 0.0038,1.369585 0.02624,2.490288 0.05013,2.490288 0.02389,0 0.319161,-0.08634 0.65629,-0.19172 l 0.6134,-0.19172 -0.0124,-1.441772 c -0.0068,-0.793088 0.0021,-1.456819 0.01964,-1.474329 0.01755,-0.01755 0.433793,0.465476 0.925525,1.07332 0.49174,0.607841 0.931158,1.119621 0.976168,1.136881 0.104101,0.03995 1.160486,-0.425513 1.158586,-0.510563 -0.0021,-0.103437 -2.8713,-3.662774 -4.149618,-5.148006 -1.299013,-1.509273 -3.634956,-3.781809 -5.788794,-5.631698 l -0.929142,-0.7984 -0.481624,0.418579 c -0.264898,0.230209 -0.488611,0.447888 -0.496611,0.484208 -0.008,0.0363 0.199493,0.235301 0.460437,0.44235 0.402335,0.319243 0.470248,0.400587 0.447518,0.533818 -0.092,0.539851 -1.029427,3.84223 -1.149284,4.048848 -0.08011,0.138092 -0.261221,0.36384 -0.402559,0.501778 l -0.256832,0.251148 -0.218591,-0.251148 C 42.022479,73.468655 42.097565,73.665352 41.424862,71.03029 l -0.394808,-1.545642 0.460953,-0.384473 c 0.253397,-0.211466 0.977284,-0.798784 1.608688,-1.305347 2.577367,-2.067758 3.586401,-3.080443 4.788338,-4.803841 l 0.188619,-0.269751 0.03152,3.345016 0.03101,3.345015 0.595829,0.593762 c 0.327599,0.326507 0.618789,0.593763 0.646989,0.593763 0.0282,0 0.04783,-0.515611 0.04393,-1.145667 -0.0038,-0.63005 -0.005,-1.163437 -0.0031,-1.185457 0.0021,-0.022 0.208593,0.163903 0.458887,0.413411 0.538846,0.537168 1.005009,0.85783 1.593701,1.096057 l 0.430465,0.17415 0.03152,0.998388 c 0.01727,0.549113 0.05747,1.041187 0.08992,1.092957 0.153862,0.245716 5.865738,6.151046 5.949508,6.151046 0.128756,0 1.055503,-0.599987 1.039213,-0.672827 -0.01683,-0.07528 -2.533533,-2.723117 -4.677751,-4.921147 l -1.083138,-1.11001 v -0.602547 c 0,-0.331394 0.02165,-0.601263 0.04754,-0.599963 0.02589,0.0013 0.626037,0.152422 1.333768,0.335896 l 1.286743,0.333313 0.01705,1.060918 0.01705,1.060917 0.609265,0.611849 c 0.335173,0.336601 0.624438,0.611849 0.642338,0.611849 0.01797,-2.06e-4 0.04228,-0.958473 0.05426,-2.129069 0.02061,-2.01791 0.01583,-2.131127 -0.09405,-2.188497 -0.17345,-0.09054 -1.055895,-0.334947 -3.007051,-0.832508 -1.96035,-0.49991 -2.394514,-0.635844 -2.758488,-0.864546 -0.729626,-0.458444 -1.592544,-1.549129 -1.87017,-2.363164 -0.06766,-0.198425 -0.16453,-2.920752 -0.10387,-2.920752 0.0191,5.8e-5 0.150978,0.162708 0.292489,0.361219 0.437386,0.613546 0.879812,1.061548 1.538924,1.558044 0.670815,0.505327 1.117439,0.742948 2.179712,1.159619 1.009828,0.396113 3.368191,1.593423 4.152201,2.107882 1.029659,0.675658 1.277208,1.155095 1.971456,3.820955 0.174434,0.669839 0.354307,1.219028 0.441317,1.349272 0.08073,0.120836 0.595235,0.684795 1.143599,1.253154 l 0.996838,1.033528 0.512114,-0.405143 0.512113,-0.404627 -0.296622,-0.313675 C 62.710463,74.351301 62.280555,73.905535 61.918183,73.532463 61.555812,73.159395 61.19808,72.752891 61.1234,72.629159 c -0.121641,-0.201556 -0.323053,-1.002166 -0.264583,-1.051616 0.01283,-0.01085 0.617123,0.06852 1.34307,0.176217 l 1.319816,0.195853 0.500745,0.340031 c 0.818793,0.556053 0.870803,0.593072 1.014408,0.716752 0.13748,0.118408 0.138758,0.117568 0.612366,-0.307991 0.26088,-0.234415 0.473873,-0.446893 0.473873,-0.472323 0,-0.05339 -1.013362,-0.787425 -1.673283,-1.211812 -0.518958,-0.333738 -0.546791,-0.340298 -2.546098,-0.609265 l -1.488798,-0.199988 -0.100769,-0.348299 c -0.116463,-0.400621 -0.301123,-0.816477 -0.515731,-1.16272 -0.08228,-0.132722 -0.140331,-0.245864 -0.129191,-0.251664 0.01112,-0.0057 0.203996,-0.100772 0.428398,-0.211357 0.2244,-0.110584 0.577302,-0.295827 0.784448,-0.411344 0.207139,-0.115505 0.836292,-0.447264 1.398364,-0.737423 l 1.02216,-0.527616 2.100647,2.10013 2.100647,2.099614 0.392224,-0.435116 c 0.215903,-0.239225 0.392741,-0.467799 0.392741,-0.507979 0,-0.04017 -0.741199,-0.829609 -1.647445,-1.754415 -0.906242,-0.924796 -1.647961,-1.699902 -1.647961,-1.722892 0,-0.02299 1.343144,-0.04066 2.984831,-0.03876 l 2.98483,0.0036 0.404627,-0.620118 c 0.222593,-0.341031 0.405137,-0.637951 0.405143,-0.659391 0,-0.02144 -3.792082,-0.03876 -8.426876,-0.03876 -8.81678,0 -8.902363,-0.0027 -9.752893,-0.274919 -2.328711,-0.745226 -4.166671,-3.374696 -4.166671,-5.96191 -3e-5,-0.298272 -0.02924,-0.851448 -0.06511,-1.229382 C 49.16712,55.466213 48.506496,53.91639 47.26895,52.604518 Z M 26.750822,66.314815 c 1.027096,0.0088 1.895605,0.0155 1.930115,0.0155 0.03453,-1.61e-4 -0.274366,0.185568 -0.68678,0.412378 -0.412417,0.226817 -0.826341,0.466711 -0.919841,0.533301 -0.09351,0.06655 -0.208344,0.118438 -0.254764,0.115238 -0.123174,-0.0082 -1.892463,-0.961555 -1.916163,-1.032495 -0.01254,-0.03758 0.679122,-0.05396 1.847433,-0.04393 z m 31.530892,5.17e-4 c 0.890133,-9.01e-4 1.986896,0.01026 2.349727,0.03152 0.250744,0.01469 0.249762,0.01515 -0.439766,0.384472 -0.379764,0.203404 -0.831454,0.448053 -1.004073,0.544153 -0.308317,0.171649 -0.316615,0.172848 -0.470773,0.06046 -0.08631,-0.06292 -0.50313,-0.303204 -0.926041,-0.534335 -0.422919,-0.231125 -0.76892,-0.439257 -0.768946,-0.461987 0.01975,-0.01541 0.579909,-0.0236 1.259872,-0.02429 z" />
      <path
         style="fill:#ff0a32;fill-opacity:1;stroke-width:0.0627703"
         d="m 40.619382,39.612197 c -0.02222,-0.02222 0.187976,-0.290564 0.467111,-0.596317 l 0.507509,-0.555912 h 1.275268 1.275268 l 0.491199,0.538507 c 0.270165,0.296179 0.50062,0.564521 0.512126,0.596317 0.02363,0.06525 -4.463382,0.0825 -4.528481,0.01739 z"
         id="path11480" />
      <path
         style="fill:#ff0303;fill-opacity:1;stroke-width:0.0439392"
         d="m 41.296753,63.753216 c -0.01505,0.01607 0.127336,0.21018 0.316424,0.431346 l 0.343789,0.40212 h 0.863872 0.863872 l 0.332741,-0.38953 c 0.183011,-0.214241 0.339122,-0.408347 0.346916,-0.431346 0.01601,-0.0472 -3.023515,-0.05968 -3.067614,-0.01258 z"
         id="path11482" />
      <path
         style="fill:#fb870a;fill-opacity:1;stroke-width:0.0627703"
         d="m 39.197065,41.865253 c 0.0013,-0.02589 0.124577,-0.28717 0.274511,-0.580625 l 0.272599,-0.533543 h 3.130774 3.130774 l 0.264621,0.502159 c 0.145543,0.276191 0.265593,0.53747 0.266778,0.580625 0.0019,0.06188 -0.772961,0.07847 -3.669913,0.07847 -2.019632,0 -3.6712,-0.02119 -3.670144,-0.04707 z"
         id="path11484" />
      <path
         style="fill:#e7d010;fill-opacity:1;stroke-width:0.0627703"
         d="m 38.729536,43.793946 c 0.02357,-0.208484 0.06149,-0.469982 0.0842,-0.581102 l 0.04134,-0.202032 h 4.014725 4.014726 l -0.0217,0.218941 c -0.01191,0.120411 -0.08429,0.374633 -0.160797,0.564927 l -0.139077,0.345998 -3.938146,0.01616 -3.938139,0.01616 z"
         id="path11486" />
      <path
         style="fill:#70ef17;fill-opacity:1;stroke-width:0.0627703"
         d="m 38.915407,46.314842 c -0.02041,-0.06433 -0.0759,-0.320544 -0.123322,-0.569376 -0.06394,-0.335599 -0.06761,-0.459538 -0.01417,-0.479976 0.0396,-0.01513 1.639701,-0.02022 3.555767,-0.01127 l 3.483752,0.01629 -0.560606,0.580625 -0.560593,0.580625 h -2.871846 c -2.746425,0 -2.873468,-0.0052 -2.908967,-0.116953 z"
         id="path11488" />
      <path
         style="fill:#25c2b4;fill-opacity:1;stroke-width:0.0627703"
         d="m 39.933574,48.487519 c -0.211408,-0.277769 -0.57217,-0.92473 -0.535886,-0.961008 0.01616,-0.01623 0.915902,-0.02196 1.999368,-0.01281 l 1.96993,0.01661 -0.82931,0.580626 -0.829315,0.580625 H 40.8986 40.088834 Z"
         id="path11490" />
      <path
         style="fill:#2677cf;fill-opacity:1;stroke-width:0.0627703"
         d="m 41.517654,56.163001 c 0,-0.04089 0.471238,-0.431181 1.087594,-0.900828 l 0.302966,-0.230848 h 1.649604 1.64961 l 0.228697,0.507451 c 0.125775,0.279096 0.228652,0.540382 0.2286,0.580626 -6.4e-5,0.05441 -0.659504,0.07477 -2.57358,0.07941 -1.415421,0.0032 -2.573491,-0.01269 -2.573491,-0.0358 z"
         id="path11492" />
      <path
         style="fill:#8c41d3;fill-opacity:1;stroke-width:0.0627703"
         d="m 39.446206,58.398253 c 1.3e-5,-0.02975 0.197513,-0.301697 0.438888,-0.60438 l 0.438869,-0.550329 3.264888,-0.01088 3.264887,-0.01095 0.05782,0.152149 c 0.03181,0.08368 0.06505,0.346435 0.07386,0.583903 l 0.01603,0.43176 -0.18401,0.01603 c -0.523794,0.04559 -7.371241,0.03883 -7.371228,-0.0073 z"
         id="path11494" />
      <path
         style="fill:#de2bd6;fill-opacity:1;stroke-width:0.0627703"
         d="m 39.229132,60.68485 c -0.08791,-0.142246 -0.347833,-0.896946 -0.347833,-1.009958 0,-0.12233 0.05718,-0.124107 3.98591,-0.124107 3.148933,0 3.985113,0.01648 3.98208,0.07846 -0.0019,0.04314 -0.09637,0.30444 -0.209496,0.580625 l -0.205658,0.502166 -3.584086,0.01623 c -2.212837,0.01 -3.598181,-0.0066 -3.620917,-0.0434 z"
         id="path11496" />
      <path
         style="fill:#ff088f;fill-opacity:1;stroke-width:0.0627703"
         d="m 40.340043,62.323706 c -0.244724,-0.306887 -0.444954,-0.575229 -0.444954,-0.596317 0,-0.02112 1.341719,-0.03838 2.981587,-0.03838 2.762472,0 3.139899,0.02028 2.918819,0.156927 -0.03451,0.02131 -0.233513,0.263094 -0.44221,0.537251 l -0.379443,0.498456 h -2.094429 -2.094422 z"
         id="path11498" />
      <path
         id="path11500"
         style="fill:url(#linearGradient11504);fill-opacity:1;stroke-width:0.0627703"
         d="m 42.538489,9.2831543 c -0.201778,-6.45e-5 -0.399737,9.629e-4 -0.590662,0.0031 -0.509131,0.0057 -0.967401,0.019521 -1.308964,0.042375 -3.292029,0.22028 -6.775601,1.0491687 -10.026261,2.3853847 -0.795578,0.327024 -3.311785,1.562889 -3.604431,1.770434 -0.09163,0.06497 -0.182735,0.118339 -0.202055,0.118339 -0.01935,0 -0.283234,0.15037 -0.586528,0.334347 -3.442552,2.088253 -6.424193,4.667613 -9.155513,7.920447 -1.616812,1.925511 -2.823341,3.703606 -4.044715,5.960359 -2.290481,4.232196 -3.7411649,8.838038 -4.2317827,13.435356 -0.2234355,2.093629 -0.2557983,2.674757 -0.2557983,4.582149 0,3.719638 0.6582418,7.859972 1.792655,11.277865 0.718479,2.164704 1.749944,4.539883 2.741952,6.313309 l 0.289905,0.517798 h 0.810803 0.81132 L 14.838888,63.70929 c -1.641583,-2.769121 -3.05619,-6.167887 -3.794601,-9.117273 -0.88971,-3.553694 -1.2100698,-6.249496 -1.1373982,-9.572543 0.021874,-1.001184 0.056457,-1.912481 0.076998,-2.024682 l 0.037207,-0.203605 h 5.046203 c 2.775225,0 5.04397,0.02114 5.04207,0.04702 -0.01091,0.151686 -1.423925,1.021943 -2.195215,1.351856 -0.882885,0.377644 -1.445757,0.479778 -2.571936,0.468188 -0.86888,-0.0089 -1.015983,0.0057 -1.37821,0.133842 -1.014828,0.359153 -1.542146,0.890837 -2.002979,2.020548 -0.380202,0.932064 -1.039362,2.94024 -0.983402,2.9962 0.03366,0.03367 2.206359,-0.408279 3.030822,-0.6165 0.8323,-0.210197 1.276506,-0.446797 1.682068,-0.895552 0.434903,-0.481219 0.735717,-1.100264 0.966349,-1.989543 l 0.10542,-0.40721 0.498161,-0.132292 c 1.502551,-0.39885 3.008381,-1.272947 4.256588,-2.471167 0.271626,-0.260751 0.959998,-0.98261 1.529622,-1.604036 0.569627,-0.621424 1.279655,-1.363565 1.577682,-1.649512 0.872396,-0.837032 1.860934,-1.441735 2.958475,-1.809709 l 0.533301,-0.179317 2.41484,-0.02015 c 1.328199,-0.01117 2.401674,-0.0082 2.385384,0.0067 -0.0163,0.01489 -0.312086,0.240329 -0.657324,0.500745 -0.345232,0.260406 -0.823832,0.672322 -1.063501,0.915706 l -0.435632,0.442867 -0.914157,0.289388 c -0.987411,0.312856 -2.642116,0.874389 -3.214274,1.09089 -0.350534,0.132639 -0.36188,0.144994 -0.884183,0.963765 -0.290988,0.456158 -0.646975,1.028754 -0.79065,1.272274 l -0.260966,0.442867 -0.0062,0.875399 c -0.02059,2.986848 0.0079,4.497167 0.08423,4.464327 0.380102,-0.163502 4.658055,-1.894415 4.857068,-1.965255 0.29687,-0.105685 0.446211,-0.251858 0.665075,-0.651123 0.0853,-0.155607 0.427862,-0.710863 0.761194,-1.233517 l 0.605648,-0.949812 v -1.882056 -1.882056 l 0.518314,-0.469738 c 0.97488,-0.884042 1.806628,-1.421333 2.34301,-1.513603 0.383976,-0.06605 0.818396,0.368679 1.25212,1.25367 0.436052,0.889749 0.477917,1.179141 0.530717,3.664376 0.04435,2.087093 0.05739,2.270374 0.207739,2.887679 0.289193,1.187357 0.604249,1.936056 1.203544,2.859257 0.394059,0.607034 1.086273,1.365216 1.204578,1.319816 0.121055,-0.04646 0.900203,-0.678488 0.900203,-0.730188 0,-0.02393 -0.145365,-0.223729 -0.322977,-0.443901 -0.459564,-0.569668 -0.964008,-1.354517 -1.18029,-1.83658 -1.307318,-2.913758 -0.733753,-6.15764 1.576648,-8.920386 0.669764,-0.800903 1.81188,-1.885146 2.908349,-2.760555 2.835734,-2.264016 3.73314,-3.169495 4.543392,-4.583182 0.390505,-0.68134 0.554239,-1.098965 0.683163,-1.743047 0.190236,-0.950354 -0.08702,-1.69282 -0.772563,-2.069641 -0.556823,-0.306059 -1.293386,-0.191582 -2.351278,0.364319 -0.243568,0.127997 -0.457906,0.217494 -0.476456,0.198954 -0.05561,-0.0556 0.341288,-0.793066 0.751375,-1.39578 0.429351,-0.631039 1.224072,-1.498364 1.506368,-1.644344 0.101667,-0.05258 0.385115,-0.151328 0.629936,-0.219108 0.620885,-0.171898 1.413035,-0.555426 1.720308,-0.833024 0.32471,-0.293352 0.622333,-0.912102 0.740007,-1.537891 0.0996,-0.529656 0.270705,-3.078882 0.206705,-3.078882 -0.04033,0 -0.574055,0.205506 -1.500166,0.577743 -0.90792,0.364919 -1.666618,0.793752 -1.995227,1.12758 -0.583574,0.592817 -0.807312,1.217231 -0.871782,2.434993 l -0.04134,0.781864 -0.591178,0.661976 c -0.637881,0.713595 -1.0145,1.214712 -1.433505,1.90841 l -0.266133,0.4408 -0.428915,0.0062 c -0.739268,0.01094 -1.347832,0.392606 -1.703772,1.068152 -0.232056,0.440453 -0.239826,1.174653 -0.01705,1.627291 0.18372,0.373281 0.532196,0.733523 0.896586,0.927075 0.387446,0.205794 1.218535,0.205851 1.606104,0 0.657227,-0.349085 1.064796,-0.953627 1.126546,-1.670699 0.04092,-0.475098 0.0939,-0.579785 0.347782,-0.685746 0.538204,-0.224641 1.024886,-0.173517 1.381311,0.145211 0.190586,0.170411 0.201121,0.203912 0.197921,0.609265 -0.0044,0.510114 -0.204909,0.994455 -0.728638,1.761649 -0.478704,0.701249 -1.914457,2.106317 -3.222025,3.15278 -1.686119,1.349432 -2.375896,1.950051 -3.127975,2.723864 -0.712101,0.732685 -1.468889,1.682731 -1.775602,2.228805 -0.09952,0.177171 -0.202003,0.321911 -0.227893,0.321944 -0.02589,3.8e-5 -0.04754,-1.715904 -0.04754,-3.813204 -3.99e-4,-4.058173 -0.02593,-4.49881 -0.315743,-5.445146 -0.293802,-0.959362 -0.725079,-1.682408 -1.652612,-2.769856 -0.437684,-0.51315 -0.815063,-1.256837 -0.96635,-1.906344 -0.09755,-0.418901 -0.109554,-0.865232 -0.109554,-4.048848 v -3.578077 l 0.1757,-0.502295 c 0.172774,-0.493861 0.596311,-1.302655 1.297595,-2.478918 0.195535,-0.327975 0.829294,-1.390815 1.408183,-2.361613 l 1.051616,-1.765267 0.387573,-0.04082 c 0.213088,-0.02248 0.769003,-0.08194 1.235066,-0.132292 0.888633,-0.09601 1.443323,-0.118474 1.443323,-0.05839 0,0.01958 -0.348907,0.563198 -0.775663,1.208195 -0.426757,0.644993 -0.996175,1.5117 -1.265039,1.92598 l -0.488859,0.752926 0.01344,1.810742 c 0.0072,0.995807 0.04048,1.882493 0.0739,1.970423 0.05738,0.150909 0.548801,0.808738 1.412317,1.891357 1.413292,1.771887 1.595001,2.030326 1.593701,2.261361 -0.0033,0.505586 -0.514443,1.38752 -1.25212,2.161108 l -0.419096,0.43925 -0.206189,-0.150895 c -0.279927,-0.205323 -0.318327,-0.336838 -0.318327,-1.093991 0,-1.14564 -0.21496,-1.750331 -0.851627,-2.395202 -0.323706,-0.327878 -0.517314,-0.452689 -1.256254,-0.809253 -1.068144,-0.51541 -2.059138,-0.977751 -2.086178,-0.972551 -0.01099,0.002 -0.01785,0.64655 -0.01395,1.431954 0.0094,2.061292 0.165149,2.652997 0.860412,3.272669 0.442456,0.394351 0.879512,0.625931 1.774052,0.941028 0.506866,0.178532 0.773852,0.310784 0.923458,0.455786 0.115802,0.112239 0.21084,0.231293 0.21084,0.264583 0,0.03333 -0.170017,0.280275 -0.377755,0.548804 -0.710691,0.918693 -1.064018,1.885519 -1.064018,2.912484 0,0.95989 0.278043,1.777691 0.940511,2.767272 0.32643,0.4876 1.348612,1.564175 1.858802,1.958021 l 0.258899,0.199987 0.507979,-0.413411 0.508496,-0.412895 -0.359151,-0.318327 c -1.093713,-0.969356 -1.936967,-2.007036 -2.214852,-2.725931 -0.209504,-0.541971 -0.238888,-1.385788 -0.06821,-1.947685 0.207841,-0.684256 0.524493,-1.12606 1.769918,-2.465483 1.37446,-1.4782 1.707902,-1.970523 2.054138,-3.033406 0.248059,-0.761474 0.210909,-0.700998 1.227315,-1.970939 0.408142,-0.50995 1.054872,-1.332914 1.437122,-1.828829 l 0.694531,-0.901754 0.05064,-0.479557 c 0.02769,-0.263597 0.05184,-1.118129 0.05374,-1.899109 l 0.0031,-1.420069 -0.303341,-0.463021 c -0.166678,-0.254726 -0.745699,-1.13472 -1.286743,-1.955436 -0.541053,-0.820716 -0.983402,-1.509989 -0.983402,-1.531689 0,-0.05114 0.915421,0.01042 2.102714,0.141076 0.70532,0.07762 0.96254,0.129596 1.02526,0.206706 0.04607,0.05661 0.495,0.794905 0.997355,1.640727 0.502351,0.845828 1.091427,1.837944 1.309481,2.205033 0.218053,0.367092 0.450251,0.762775 0.515731,0.879016 0.06547,0.116238 0.262577,0.465472 0.438216,0.77618 0.175638,0.310712 0.384661,0.762411 0.464571,1.004073 l 0.145211,0.439767 v 3.797701 3.797184 l -0.146244,0.408244 c -0.248427,0.691129 -0.557504,1.208004 -1.132231,1.894458 -0.619456,0.739879 -0.92433,1.211348 -1.193725,1.846399 -0.528813,1.246635 -0.569725,1.68503 -0.571025,6.160864 -6.4e-4,2.045516 -0.02217,3.719138 -0.04806,3.718636 -0.0259,-5.02e-4 -0.12154,-0.134684 -0.21239,-0.298173 -0.453305,-0.815667 -1.69729,-2.272914 -2.69906,-3.161047 -0.499338,-0.4427 -0.450392,-0.449527 -1.101225,0.157096 l -0.365352,0.340548 0.188102,0.13901 c 0.340243,0.251609 1.904269,1.882689 2.265495,2.362646 0.887251,1.178877 1.374192,2.131888 1.652612,3.232878 0.163109,0.644857 0.163201,0.811777 -10e-4,1.312064 -0.264527,0.805777 -0.82156,1.71377 -1.580782,2.577621 -0.75959,0.864257 -1.738694,1.652504 -4.313432,3.471622 -1.75179,1.237685 -2.37805,1.734593 -3.138309,2.489771 -0.988994,0.982369 -1.591772,1.942091 -2.005046,3.194637 -0.267614,0.811083 -0.36571,1.451116 -0.43925,2.856156 -0.0747,1.427039 -0.244913,2.202149 -0.679545,3.098002 -0.851217,1.754499 -2.172268,2.932784 -3.737756,3.33313 -0.914147,0.233784 -2.26596,0.265486 -10.321851,0.243396 -4.185972,-0.01146 -7.610911,-0.0041 -7.610905,0.01654 1.3e-5,0.04144 0.672901,1.127917 0.744141,1.201477 0.02458,0.02538 1.382511,0.06013 3.017387,0.077 1.634883,0.01687 2.980919,0.03905 2.991549,0.04961 0.0106,0.0106 -0.741047,0.780987 -1.670699,1.71204 -0.929659,0.931069 -1.689927,1.707183 -1.689303,1.724443 5.15e-4,0.01726 0.19337,0.242017 0.428914,0.499194 l 0.428398,0.467672 2.057756,-2.084111 c 1.131823,-1.146153 2.099122,-2.08411 2.149222,-2.08411 0.05012,0 0.782852,0.370122 1.628325,0.822172 1.520448,0.812954 1.920128,1.024762 1.950268,1.034562 0.0085,0.0028 -0.09657,0.22201 -0.233577,0.486792 -0.137024,0.264775 -0.295317,0.643803 -0.351917,0.842326 -0.05657,0.198524 -0.125659,0.385022 -0.153479,0.414962 -0.02784,0.02993 -0.786944,0.148267 -1.686718,0.262516 -0.899785,0.114236 -1.69974,0.227968 -1.77767,0.252698 -0.237553,0.0754 -1.960155,1.245506 -2.123901,1.442806 -0.07389,0.08904 -0.02804,0.155519 0.367936,0.535368 0.248722,0.238583 0.467475,0.434082 0.486275,0.434082 0.0188,0 0.294316,-0.192922 0.611849,-0.428915 1.045311,-0.776904 0.942198,-0.735721 2.272213,-0.917773 0.655946,-0.08979 1.256089,-0.176727 1.333769,-0.193787 0.182,-0.04002 0.182063,0.05633 -5.17e-4,0.645439 -0.137546,0.443817 -0.165259,0.479681 -1.161169,1.51722 -0.561012,0.584459 -1.018293,1.086074 -1.016993,1.11466 0.0023,0.04205 0.538808,0.480332 0.899687,0.734839 0.05404,0.03811 0.280461,-0.154149 0.73949,-0.627868 1.029123,-1.062046 1.458837,-1.531509 1.536857,-1.677934 0.08825,-0.165594 0.376824,-1.16053 0.676444,-2.331641 0.35735,-1.39674 0.798702,-2.147623 1.574065,-2.677872 0.81664,-0.558487 3.886146,-2.065794 4.927864,-2.420008 0.392218,-0.13336 1.269846,-0.670758 1.757516,-1.07642 0.492664,-0.409812 0.836823,-0.775471 1.27279,-1.351855 l 0.327629,-0.433566 0.01757,1.029912 c 0.0098,0.566327 -0.0095,1.208439 -0.04341,1.427303 -0.168423,1.089297 -1.243906,2.489438 -2.2965,2.989481 -0.277209,0.131692 -1.169098,0.398377 -2.41639,0.722437 -1.932433,0.502064 -3.016875,0.799959 -3.057695,0.840775 -0.0112,0.01119 -0.01272,0.992492 -0.0036,2.180229 l 0.01654,2.159042 0.611849,-0.633037 0.612366,-0.633036 0.02532,-1.030428 c 0.01404,-0.566601 0.02832,-1.048199 0.03152,-1.070219 0.0032,-0.02205 0.111865,-0.05912 0.241329,-0.08217 0.129465,-0.02305 0.706287,-0.166985 1.282092,-0.320393 0.575815,-0.153417 1.070311,-0.279066 1.098641,-0.279053 0.02834,2.6e-5 0.05761,0.254547 0.06511,0.565857 l 0.01344,0.566373 -0.515731,0.556556 c -0.283719,0.306129 -1.492358,1.569399 -2.686141,2.80758 -2.313022,2.399028 -2.663346,2.774372 -2.624646,2.812232 0.01347,0.01319 0.236132,0.151413 0.49506,0.307474 0.258928,0.156051 0.514031,0.285755 0.566891,0.288355 0.09024,0.0042 0.603348,-0.517503 3.730004,-3.79305 0.692041,-0.72499 1.490567,-1.554161 1.774569,-1.842265 l 0.516764,-0.523482 0.01705,-1.039213 0.01705,-1.038697 0.478524,-0.201021 c 0.467177,-0.196443 1.39557,-0.787664 1.48518,-0.945679 0.02475,-0.04365 0.158007,-0.201327 0.296106,-0.350366 l 0.251148,-0.270784 0.03152,1.201993 0.03101,1.201994 0.611332,-0.587561 0.611333,-0.588078 0.0036,-3.330546 c 0.0021,-1.831681 0.02385,-3.330136 0.04806,-3.329512 0.02424,3.93e-4 0.207087,0.235798 0.406177,0.522965 0.19909,0.287177 0.49178,0.67534 0.650606,0.86248 0.725791,0.855209 2.244186,2.341015 2.354378,2.303735 0.0286,-0.0097 0.264815,-0.187152 0.524516,-0.394291 l 0.472323,-0.376721 -0.740524,-0.72192 c -1.804578,-1.759621 -2.799688,-3.132785 -3.273702,-4.517037 -0.241648,-0.705655 -0.238947,-0.91256 0.01964,-1.500683 0.580741,-1.320852 1.668595,-2.605151 3.331063,-3.931543 0.412713,-0.329282 1.511966,-1.141638 2.442745,-1.805575 2.78282,-1.985021 3.877726,-3.049176 4.656047,-4.526855 0.73062,-1.38711 0.969839,-2.708259 0.970483,-5.355746 6.18e-4,-2.020596 0.110718,-2.6863 0.584461,-3.533634 0.261448,-0.467626 0.836344,-1.067119 1.023193,-1.067119 0.480672,0 1.630726,0.717399 2.456181,1.532207 l 0.580843,0.573608 v 1.858285 1.857767 l 0.540535,0.871265 c 0.82269,1.326196 1.024095,1.632358 1.141016,1.732711 0.155575,0.13354 5.22477,2.203229 5.22087,2.131653 -0.0013,-0.02387 0.0056,-1.229432 0.0155,-2.679423 l 0.01809,-2.636532 -0.340548,-0.564823 c -0.515474,-0.85428 -1.229471,-1.937471 -1.328601,-2.015381 -0.04844,-0.03807 -1.061648,-0.387817 -2.251542,-0.777214 l -2.163692,-0.707967 -0.281637,-0.313676 c -0.312321,-0.347369 -1.096369,-0.997847 -1.538924,-1.277441 -0.157487,-0.0995 -0.286224,-0.203691 -0.286288,-0.231511 -6.5e-5,-0.02782 1.066097,-0.04059 2.369365,-0.02842 2.638772,0.0246 2.626081,0.02266 3.679879,0.49041 1.163271,0.516347 1.945276,1.154265 3.413745,2.785876 1.69436,1.882614 2.69162,2.779672 3.913973,3.519165 0.627859,0.379842 1.534207,0.767353 2.158524,0.922941 0.276185,0.06883 0.532838,0.157674 0.570508,0.197404 0.03764,0.0397 0.131306,0.297944 0.208256,0.574125 0.324807,1.165754 0.923429,1.984439 1.723926,2.359029 0.458717,0.21466 2.325274,0.681831 3.63647,0.910022 0.28305,0.04926 0.291427,0.137195 -0.115755,-1.166337 -0.763189,-2.443299 -1.242225,-3.221331 -2.263428,-3.676261 -0.577215,-0.257161 -0.836378,-0.297058 -2.002461,-0.306958 -1.089232,-0.0092 -1.151122,-0.01633 -1.725993,-0.208256 -0.327975,-0.109497 -0.818904,-0.313241 -1.09089,-0.452686 -0.4818,-0.247012 -1.626655,-1.007257 -1.703255,-1.131197 -0.02504,-0.04056 1.710835,-0.06201 5.020882,-0.06201 4.759119,0 5.061001,0.0062 5.102531,0.109554 0.07936,0.197618 0.05156,4.952426 -0.03411,5.821866 -0.123103,1.249449 -0.381006,3.058366 -0.550354,3.860747 -0.431477,2.044383 -1.151445,4.465214 -1.845366,6.204789 -0.281281,0.705167 -1.279971,2.903998 -1.443839,3.179134 -0.06169,0.103573 -0.218806,0.386203 -0.349333,0.627869 -0.130526,0.241661 -0.357525,0.636834 -0.504362,0.878499 l -0.267167,0.439766 0.789099,0.01757 c 0.433923,0.0097 0.812643,-0.006 0.841293,-0.03462 0.25177,-0.251775 1.605783,-3.03601 2.235522,-4.596618 1.342958,-3.328081 2.253245,-7.384281 2.50734,-11.173479 0.07695,-1.147173 0.05612,-4.39397 -0.03514,-5.492171 C 76.666808,37.947137 75.435584,33.395844 73.469417,29.375468 72.328151,27.041829 71.265365,25.279772 69.919246,23.489006 66.429259,18.846195 62.087792,15.135911 57.393396,12.784233 55.318079,11.744594 54.167412,11.294535 51.466626,10.466028 50.470826,10.160545 48.738832,9.7902235 47.480823,9.6138835 47.083801,9.5582304 46.476272,9.4717431 46.131034,9.4216471 45.544538,9.3365765 43.950928,9.2836058 42.538489,9.2831543 Z m -5.807914,2.0334677 c 0.0049,-9.8e-5 0.0077,1.3e-4 0.0088,10e-4 0.01301,0.01127 -0.476092,0.855008 -1.086756,1.874821 -0.610654,1.019813 -1.125119,1.854151 -1.143599,1.854151 -0.04734,0 0.04627,-3.16127 0.09508,-3.21014 0.04725,-0.04733 1.975699,-0.516838 2.126486,-0.519865 z m 12.251965,0.0031 c 0.166578,0.0023 2.116347,0.482339 2.170927,0.536919 0.01813,0.01818 0.02532,0.734201 0.01602,1.591634 l -0.01654,1.559078 -0.572058,-0.937411 c -0.314743,-0.515691 -0.762909,-1.262826 -0.995805,-1.659847 -0.232888,-0.397019 -0.476729,-0.797804 -0.541569,-0.890901 -0.0648,-0.0931 -0.09687,-0.182141 -0.07131,-0.197921 0.0015,-9.51e-4 0.005,-0.0016 0.01033,-0.0016 z m -6.774264,0.683163 v 2.086694 c 0,1.147771 -0.0074,2.085788 -0.01602,2.085144 -0.0325,-0.0034 -1.523028,-1.697291 -1.541508,-1.751831 -0.01064,-0.03139 0.335389,-0.588902 0.768945,-1.238684 z m 1.3224,0.158647 c 0.01235,-3.7e-5 0.02737,0.01493 0.04496,0.03669 0.05927,0.07332 0.333597,0.46484 0.609782,0.869714 0.276189,0.404877 0.593699,0.858417 0.7059,1.008207 0.112204,0.149792 0.204122,0.286735 0.204122,0.304375 0,0.01763 -0.327805,0.407994 -0.728638,0.86713 -0.400833,0.459133 -0.768001,0.876009 -0.815971,0.926559 -0.07458,0.07855 -0.08717,-0.2134 -0.08527,-2.008663 0.0016,-1.652225 0.0056,-2.003834 0.06511,-2.004012 z m -10.33787,0.120406 c 0.03052,0.0015 0.05855,1.151163 0.06305,2.576587 0.0045,1.415466 0.0078,2.572719 0.0078,2.571419 0,-0.0011 -0.828106,-0.823162 -1.840198,-1.826762 -1.012099,-1.003599 -1.829567,-1.835326 -1.816427,-1.848466 0.177345,-0.177345 3.35836,-1.483858 3.585828,-1.472778 z m 19.302181,0.0026 c 0.220378,0 3.485788,1.323652 3.635954,1.473812 0.01246,0.01247 -0.805751,0.843289 -1.818494,1.846399 -1.01275,1.00311 -1.848651,1.825085 -1.857251,1.825729 -0.0086,9.02e-4 -0.0155,-1.15647 -0.0155,-2.571936 0,-1.441477 0.02432,-2.574004 0.05529,-2.574004 z m 4.909778,2.119768 c 0.145491,0.03905 1.290807,0.711778 2.190564,1.286743 1.170713,0.748116 1.799977,1.196662 2.777608,1.979207 l 0.737423,0.590145 v 5.759338 5.759856 l -0.946196,1.013374 c -0.520603,0.55738 -0.975768,1.013375 -1.011308,1.013375 -0.03555,0 -0.04865,-0.0634 -0.02945,-0.141076 0.01917,-0.07767 0.05434,-0.432756 0.07855,-0.789099 l 0.04393,-0.648023 0.241329,-0.193787 c 0.56086,-0.45072 0.717272,-1.24129 0.366386,-1.853116 -0.57644,-1.005128 -1.956455,-0.975014 -2.4691,0.05374 -0.308793,0.619656 -0.187404,1.223229 0.350366,1.742013 0.268609,0.259145 0.282012,0.288387 0.258382,0.564823 -0.06135,0.718046 -0.173464,1.270042 -0.351399,1.733744 -0.406126,1.058409 -1.034094,1.437543 -4.590935,2.771407 -2.767427,1.037823 -3.760799,1.513698 -4.619873,2.213302 v 5.17e-4 c -0.189882,0.154635 -0.494032,0.438284 -0.675927,0.630452 l -0.33073,0.349333 0.01654,-1.067118 0.01705,-1.067119 0.243913,-0.455786 c 0.276288,-0.517101 0.924804,-1.221534 1.53634,-1.668632 l 0.398942,-0.291972 h 0.868681 c 0.750904,0 0.935713,-0.02117 1.362708,-0.156063 0.875617,-0.2766 1.314409,-0.681706 1.810225,-1.669665 0.321458,-0.640512 1.148394,-2.630847 1.092957,-2.630847 -0.02515,0 -0.410056,0.0284 -0.855245,0.06305 -2.541663,0.197764 -3.373031,0.433895 -4.006474,1.138432 -0.361696,0.402291 -0.558926,0.813679 -0.762228,1.591634 -0.160388,0.613764 -0.170702,0.632186 -0.458886,0.83044 -0.162104,0.111512 -0.513708,0.404506 -0.781348,0.651123 -0.267641,0.246611 -0.493595,0.43766 -0.502295,0.42478 -0.0086,-0.01289 0.0032,-0.574256 0.02635,-1.247469 0.0381,-1.110119 0.05934,-1.280469 0.227893,-1.830379 0.102207,-0.333484 0.310614,-0.826562 0.463021,-1.096057 0.336281,-0.594627 0.976266,-1.26589 1.421619,-1.490865 0.666346,-0.336594 0.835096,-0.35295 3.595646,-0.35295 1.944921,0 2.571503,-0.01867 2.645833,-0.07855 0.05357,-0.04315 0.742509,-0.855145 1.530656,-1.804541 0.788154,-0.949395 1.617843,-1.941137 1.844332,-2.204 0.226488,-0.262863 0.547189,-0.649802 0.712101,-0.859896 l 0.299723,-0.382406 -0.205672,-0.03359 c -0.261251,-0.04265 -1.449127,-0.180788 -3.28042,-0.381372 -0.78941,-0.08647 -1.447186,-0.169218 -1.461926,-0.183968 -0.01473,-0.01473 0.331374,-0.393329 0.768945,-0.841809 l 0.795301,-0.815455 0.319877,0.09457 c 0.766654,0.227673 1.600827,-0.175641 1.968872,-0.95188 0.394398,-0.831817 0.0044,-1.911697 -0.842843,-2.33319 -0.314411,-0.156636 -1.150387,-0.158004 -1.438672,-0.0026 -0.757182,0.408216 -1.131323,1.188483 -0.961698,2.005562 l 0.07338,0.352433 -1.052132,1.040247 c -0.578645,0.572207 -1.053416,1.040214 -1.054716,1.040246 -0.0015,3.2e-5 0.0056,-0.663504 0.01602,-1.474845 l 0.0186,-1.475362 -0.457854,-0.0047 c -0.252068,-0.0024 -0.536029,-0.01431 -0.630969,-0.02687 l -0.172599,-0.02274 v 2.193147 2.193148 l -0.706417,0.736906 c -0.388386,0.405347 -0.868,0.906401 -1.066085,1.113627 l -0.360185,0.376722 -10e-4,-2.387968 c -8.44e-4,-2.572023 0.01731,-2.749465 0.348299,-3.474207 0.08496,-0.186038 0.293248,-0.52468 0.463021,-0.752926 0.351181,-0.472156 4.058815,-4.189973 4.153235,-4.164603 z m -29.03492,0.01188 c 0.01248,-3.38e-4 0.02203,0.0015 0.02894,0.0052 0.13734,0.07387 3.701892,3.681564 3.966683,4.014742 0.285535,0.359295 0.564291,0.916551 0.733806,1.46606 0.125796,0.407053 0.132907,0.559678 0.129707,2.824634 l -0.0031,2.394686 -0.942061,-0.973067 c -0.518288,-0.53512 -0.983046,-1.031485 -1.032496,-1.102775 -0.07129,-0.102703 -0.09757,-0.532684 -0.12609,-2.071192 -0.0198,-1.067984 -0.05498,-1.959377 -0.07855,-1.980757 -0.04054,-0.03679 -3.080497,-0.936459 -4.436939,-1.313098 -0.345235,-0.09586 -0.903116,-0.257669 -1.239717,-0.359668 l -0.611849,-0.185519 v 0.234094 c 0,0.128892 0.04105,0.626734 0.09147,1.105876 0.05043,0.479145 0.150389,1.436019 0.222209,2.126485 0.248269,2.386758 0.441992,3.181004 1.087272,4.465361 0.340354,0.677421 0.853647,1.535258 1.37511,2.297534 l 0.375687,0.548804 h 2.613794 c 2.842275,-5.02e-4 3.036103,0.01804 3.662826,0.359151 0.478112,0.260223 0.963606,0.754505 1.301729,1.324467 0.57682,0.972325 0.819588,1.995365 0.819588,3.458187 v 0.903304 l -0.329695,-0.309542 c -0.181247,-0.170268 -0.53343,-0.471051 -0.782381,-0.668693 -0.437439,-0.347279 -0.456868,-0.374803 -0.581877,-0.813904 -0.293345,-1.030393 -0.533271,-1.467861 -1.068669,-1.949235 -0.503849,-0.453009 -1.197661,-0.662515 -2.729549,-0.824239 -1.494255,-0.15776 -1.935039,-0.177773 -1.899109,-0.08578 0.800819,2.049948 1.286635,3.040715 1.693437,3.455086 0.69207,0.704958 1.320591,0.927076 2.625679,0.927076 h 0.856279 l 0.403076,0.30489 c 0.522023,0.395179 1.233016,1.159214 1.449524,1.557011 0.27283,0.50127 0.363285,0.961509 0.363285,1.854668 0,0.441551 -0.02114,0.7992 -0.04703,0.7953 -0.0259,-0.004 -0.216602,-0.190154 -0.423747,-0.413928 -0.897825,-0.96993 -2.072203,-1.585214 -5.36298,-2.809648 -1.101319,-0.409784 -2.613755,-1.024899 -3.019971,-1.228349 -1.02745,-0.51457 -1.484221,-1.220403 -1.663981,-2.570386 -0.125626,-0.943523 -0.12531,-0.94676 0.154513,-1.144633 0.624363,-0.441512 0.729941,-1.451389 0.214457,-2.053621 -0.727627,-0.850066 -1.946157,-0.64788 -2.409672,0.399976 -0.241987,0.547042 -0.07458,1.147401 0.458886,1.646411 0.268599,0.251263 0.279352,0.275081 0.291972,0.658874 0.0072,0.21907 0.03678,0.568008 0.06563,0.775147 0.02881,0.207139 0.04541,0.384374 0.03721,0.393774 -0.02724,0.03102 -1.068419,-1.012377 -1.539957,-1.543058 l -0.463538,-0.521415 0.0083,-5.782076 0.0083,-5.782593 0.207739,-0.15658 c 0.114384,-0.08621 0.405841,-0.315477 0.647506,-0.509529 1.515378,-1.216805 4.511646,-3.133001 4.898409,-3.143478 z m 11.831836,1.414901 0.171565,0.193787 c 0.09438,0.106547 0.416197,0.459965 0.715202,0.784965 0.299012,0.324991 0.673818,0.749809 0.833024,0.944128 h -5.17e-4 l 0.289388,0.35295 -0.01705,1.169438 -0.01705,1.169437 -0.98857,-1.267622 -0.98857,-1.26814 10e-4,-1.039213 z m 5.265311,0 0.0026,1.072286 0.0026,1.071769 -0.549321,0.68833 c -0.30208,0.378534 -0.730401,0.927083 -0.95188,1.219047 h -5.16e-4 c -0.221472,0.291961 -0.42642,0.557892 -0.45527,0.590662 -0.02885,0.0328 -0.05219,-0.471456 -0.05219,-1.120345 0,-1.385206 -0.09158,-1.167122 1.000456,-2.384351 0.39906,-0.444809 0.788107,-0.882757 0.864547,-0.973067 z m -17.886247,3.365686 c 5.44e-4,2e-6 0.0013,2.43e-4 0.0021,5.17e-4 0.05179,0.01751 0.595403,0.185152 1.208195,0.372587 l 1.114144,0.341064 v 0.862997 c 0,0.474854 -0.0069,0.862607 -0.0155,0.861963 -0.0086,-9.08e-4 -0.552764,-0.557209 -1.208711,-1.236101 -0.6457,-0.668287 -1.134447,-1.20318 -1.100192,-1.203027 z m -6.323128,0.243396 c 0.02543,1.48e-4 0.05394,2.020171 0.06304,4.488615 0.0091,2.468437 0.0012,4.488098 -0.01757,4.488098 -0.01874,-7e-6 -0.435559,-0.409505 -0.926041,-0.910022 L 19.485111,26.596838 V 23.90553 21.214221 l 0.862996,-0.887284 c 0.474702,-0.487896 0.884075,-0.886897 0.909505,-0.886768 z m 43.14517,5.17e-4 c 0.02024,0 0.429682,0.400856 0.910022,0.890902 l 0.873332,0.890901 v 2.696476 2.696477 l -0.86248,0.885217 c -0.474409,0.48665 -0.883812,0.893841 -0.910022,0.905371 -0.02614,0.01151 -0.04754,-2.000766 -0.04754,-4.472078 0,-2.471316 0.01647,-4.493266 0.03669,-4.493266 z m -38.167696,0.259932 c 0.06758,-0.0093 1.919213,1.871352 2.168343,2.203483 l 0.129191,0.1726 -0.427881,5.16e-4 c -0.235384,1.3e-4 -0.703129,0.01854 -1.039729,0.04083 -0.43724,0.02897 -0.612366,0.02025 -0.612366,-0.03049 0,-0.03903 -0.05794,-0.582525 -0.129191,-1.208195 -0.07127,-0.625673 -0.11149,-1.155616 -0.0894,-1.177706 3.09e-4,-3.09e-4 5.01e-4,-9.6e-4 10e-4,-0.001 z m -8.010364,2.972429 0.0026,1.836063 0.0026,1.836064 h -1.349788 c -0.742259,0 -1.349789,-0.01206 -1.349789,-0.02687 0,-0.133778 1.874358,-2.703306 2.475818,-3.394108 z m 49.235755,0.05374 c 0.05757,-0.01057 0.408381,0.395811 0.978235,1.136882 0.626308,0.81449 1.702221,2.359762 1.702221,2.444812 0,0.02022 -0.593271,0.03669 -1.318265,0.03669 h -1.318266 v -1.720825 c 0,-0.946569 -0.01854,-1.772834 -0.04134,-1.836064 -0.014,-0.03885 -0.01453,-0.0593 -0.0026,-0.0615 z m -11.348662,0.403593 0.470773,0.03876 c 1.180721,0.09762 1.883643,0.187548 1.836063,0.235128 -0.0285,0.0285 -0.573357,0.275465 -1.210778,0.548804 -0.637426,0.273333 -1.554274,0.671427 -2.037602,0.8847 -0.483331,0.213275 -0.921297,0.404501 -0.973067,0.424781 -0.129252,0.05066 -0.0087,-0.08873 1.035595,-1.198377 z m -26.733768,0.07648 c 0.265107,0 0.35011,0.02636 0.42323,0.130742 0.05034,0.07188 0.442175,0.488178 0.870748,0.925524 0.428576,0.437343 0.800099,0.830709 0.825789,0.873849 0.02591,0.04319 0.02382,0.07683 -0.0041,0.07493 -0.02793,-0.002 -0.799238,-0.381935 -1.714107,-0.844393 C 28.864736,23.90505 28.024226,23.49483 27.912025,23.45594 27.799822,23.41707 27.70842,23.36367 27.70842,23.337084 c 0,-0.0485 1.047721,-0.130225 1.669666,-0.130225 z m -2.218986,1.21853 c 0.03,-0.03 4.102478,2.014247 4.216797,2.116667 0.03181,0.02879 0.04642,0.05956 0.03152,0.06873 -0.01496,0.0092 -0.677786,0.0093 -1.472778,0 l -1.44539,-0.01654 -0.680578,-1.069185 c -0.374265,-0.587943 -0.666313,-1.082935 -0.649573,-1.099675 z m 31.732947,0.129192 c 8.28e-4,6.5e-5 0.0012,2.14e-4 0.0016,5.16e-4 0.01104,0.01104 -0.356179,0.473123 -0.815971,1.026811 l -0.836125,1.006657 -1.471745,0.0041 c -0.850304,0.0022 -1.446766,-0.01981 -1.412316,-0.05168 0.113099,-0.104739 4.429373,-1.994719 4.534607,-1.986442 z m 8.061006,3.107303 2.017448,0.01654 2.017965,0.01654 0.39119,0.72192 c 0.215233,0.397021 0.391594,0.756811 0.392225,0.799951 5.6e-4,0.04414 -0.0752,0.07855 -0.173117,0.07855 -0.499368,0 -2.164406,0.54 -3.091284,1.002523 -1.381505,0.689395 -1.777275,1.01327 -4.109826,3.360002 -1.960754,1.972679 -2.378985,2.31071 -3.29489,2.66392 -0.260317,0.100391 -0.698967,0.225796 -0.974617,0.278536 -0.613607,0.117363 -1.596799,0.14275 -3.890719,0.101803 -1.992699,-0.03558 -1.949518,0.0076 -0.533817,-0.524 4.039467,-1.516727 5.378219,-2.340715 7.537007,-4.636926 0.528411,-0.562046 1.580178,-1.664609 2.336809,-2.450496 z m -50.223291,0.0016 h 1.999361 l 0.995288,1.020093 c 0.547464,0.561009 1.261035,1.302729 1.585433,1.647961 1.995609,2.123817 3.033906,3.075389 4.138766,3.7946 0.807028,0.525346 2.468445,1.269773 4.864819,2.179196 0.414285,0.15722 0.78009,0.310931 0.81287,0.341581 0.03486,0.03258 -0.4347,0.0557 -1.130163,0.05633 -0.654221,5.8e-4 -1.65555,0.01199 -2.225187,0.02532 -0.56964,0.01328 -1.148654,0.01359 -1.286743,0 -2.100102,-0.206318 -2.914819,-0.700136 -5.299419,-3.21169 -1.645902,-1.733525 -2.463266,-2.402624 -3.833874,-3.139343 -0.906942,-0.48749 -2.703669,-1.082105 -3.270601,-1.082105 -0.09989,0 -0.181385,-0.02283 -0.181385,-0.05116 0,-0.06462 0.679621,-1.395944 0.766878,-1.502234 0.04908,-0.05979 0.540558,-0.07855 2.063957,-0.07855 z m -3.49436,2.824634 h 0.211873 c 0.651301,0 2.144915,0.436782 3.056661,0.894002 0.507388,0.254447 1.527653,0.920525 1.666048,1.087272 0.06518,0.07855 -0.310908,0.09043 -2.855639,0.09043 H 12.38374 l 0.04444,-0.141594 c 0.02435,-0.07768 0.215965,-0.543639 0.425814,-1.035595 z m 59.096651,0.01188 c 0.06734,5.4e-4 0.112483,0.0077 0.127641,0.02325 0.08462,0.08693 0.895193,1.982161 0.861963,2.015381 -0.100482,0.100482 -5.902722,0.02746 -5.830652,-0.07338 0.08331,-0.116554 1.297229,-0.894849 1.739945,-1.115694 0.241665,-0.120559 0.739592,-0.32157 1.10691,-0.447001 0.606052,-0.206964 1.630546,-0.405475 1.994193,-0.40256 z m -52.611259,3.377055 0.949813,0.997355 c 0.522335,0.548687 1.177799,1.17761 1.456759,1.397331 l 0.507462,0.399459 -4.362524,0.01602 -4.363041,0.01602 -0.617017,0.759127 c -0.339559,0.417611 -0.782353,0.961462 -0.983919,1.208195 -0.201576,0.246739 -0.576932,0.723799 -0.834058,1.0604 l -0.467672,0.612366 h 2.662887 2.66237 l 0.266133,-0.298173 c 0.371497,-0.416442 0.945168,-1.033614 1.458309,-1.56838 l 0.435633,-0.454236 3.258715,-0.0031 c 1.79222,-0.0018 3.259483,0.0135 3.260783,0.03359 0.0012,0.0201 -0.175214,0.168124 -0.392224,0.329179 -0.449387,0.333519 -1.320176,1.1873 -2.399853,2.353345 l -0.74104,0.800468 H 15.80317 10.128064 l 0.03876,-0.329696 C 10.41037,39.14212 11.126686,35.952806 11.7135,34.317339 l 0.146244,-0.408244 3.93051,-0.01602 z m 46.316553,0 3.888135,0.01602 3.887618,0.01602 0.115238,0.345199 c 0.512751,1.533791 0.792769,2.572919 1.136365,4.215763 0.209418,1.001262 0.473745,2.629138 0.474389,2.92437 h -5.16e-4 l 5.16e-4,0.141076 h -5.677172 -5.677173 l -0.976168,-1.06097 C 62.203233,39.382035 61.567491,38.76187 60.991109,38.31084 l -0.330729,-0.258899 3.280937,-0.01757 3.280936,-0.01757 0.484209,0.519865 c 0.266434,0.285857 0.746651,0.807444 1.067118,1.159619 l 0.58291,0.640271 2.652035,0.0036 c 1.458621,0.0017 2.652034,-0.01181 2.652034,-0.02997 0,-0.06178 -2.383367,-3.019771 -2.792594,-3.465938 l -0.129191,-0.141077 -4.356324,-0.01602 -4.356323,-0.01602 0.37207,-0.277503 c 0.204454,-0.152657 0.88168,-0.781574 1.505335,-1.397331 z M 15.559257,37.95789 c 0.04517,-1.78e-4 0.09198,0 0.14056,0 0.597563,0 1.086239,0.0093 1.086239,0.02067 0,0.01136 -0.234587,0.26547 -0.521416,0.564824 l -0.521415,0.544153 h -1.047998 c -0.576263,0 -1.047481,-0.01751 -1.047481,-0.03876 0,-0.04525 0.733162,-0.897108 0.871264,-1.012341 0.06306,-0.05262 0.362696,-0.07589 1.040247,-0.07855 z m 54.465409,0.0021 c 0.546724,-0.0014 1.108487,0.0134 1.154452,0.04599 0.08724,0.06186 0.84491,0.999374 0.84491,1.045414 0,0.02003 -0.473347,0.03597 -1.051616,0.03566 l -1.051099,-5.17e-4 -0.470772,-0.510563 c -0.258928,-0.280821 -0.480429,-0.534687 -0.491959,-0.564307 -0.01271,-0.03272 0.519363,-0.05026 1.066084,-0.05168 z m -13.638444,3.701066 c 0.175858,0 2.168464,0.724282 2.257744,0.820622 0.05717,0.06169 0.328106,0.486381 0.601513,0.943611 l 0.497128,0.831474 0.01912,1.056266 c 0.01049,0.580896 0.0056,1.056267 -0.01085,1.056267 -0.01647,0 -0.144375,-0.162708 -0.283704,-0.361219 -0.955699,-1.361597 -2.455935,-3.452925 -2.76934,-3.860229 -0.205877,-0.267557 -0.345989,-0.486792 -0.311609,-0.486792 z m -27.134261,0.02377 c 0.0044,-4.36e-4 0.0069,-3.28e-4 0.0078,5.17e-4 0.01354,0.01354 -0.478262,0.723144 -1.092957,1.576648 -1.185188,1.645613 -1.834214,2.569006 -2.040185,2.903182 -0.06916,0.112203 -0.137056,0.204122 -0.150896,0.204122 -0.01385,0 -0.0248,-0.471384 -0.0248,-1.047482 V 44.2743 l 0.383956,-0.658874 c 0.723666,-1.240558 0.637404,-1.166548 1.845882,-1.5875 0.543603,-0.189352 1.004648,-0.336596 1.071252,-0.343132 z m 26.039238,0.611332 c 4.47e-4,-3.59e-4 0.0011,-4.87e-4 0.0016,0 0.03274,0.03273 0.706346,0.97239 1.72806,2.409672 0.758431,1.066915 1.113046,1.558106 1.381311,1.914095 0.09106,0.120829 0.18663,0.255033 0.21239,0.298173 0.07878,0.13213 -0.07569,0.08345 -1.105876,-0.351399 -0.590584,-0.249295 -1.024917,-0.470984 -1.080037,-0.550354 -0.179038,-0.257679 -0.748382,-1.189195 -0.916223,-1.499134 -0.156975,-0.289891 -0.1733,-0.387723 -0.20929,-1.281575 -0.0207,-0.515615 -0.02575,-0.928342 -0.01188,-0.939478 z m -24.930778,0.05839 c 0.02589,-0.0014 0.04703,0.397386 0.04703,0.886767 v 0.889868 l -0.580843,0.968934 c -0.319344,0.532832 -0.646273,1.012901 -0.72657,1.066601 -0.0803,0.05369 -0.55589,0.262085 -1.056783,0.463538 -0.500903,0.201457 -0.935373,0.366386 -0.965833,0.366386 -0.03046,0 0.1625,-0.306755 0.428914,-0.681613 0.266417,-0.374855 1.006694,-1.41864 1.645378,-2.319755 0.638683,-0.901121 1.182822,-1.639426 1.208712,-1.640726 z m 17.466117,4.118095 c 0.05544,0.001 0.0015,0.200118 -0.147278,0.618566 -0.232161,0.652879 -0.488646,1.148936 -0.88315,1.707907 -0.795796,1.12756 -1.619473,1.83059 -4.856551,4.146 -1.310035,0.937031 -2.150146,1.619845 -2.852022,2.317688 -0.340744,0.338775 -0.766403,0.810854 -0.946196,1.049031 -0.179792,0.238185 -0.327112,0.387976 -0.327112,0.332796 0,-0.201024 0.334972,-1.155221 0.580327,-1.653129 0.652913,-1.325028 1.608793,-2.259152 4.153235,-4.0566 2.760708,-1.950217 4.120863,-3.082059 4.943884,-4.114994 0.182413,-0.22894 0.291745,-0.348057 0.334863,-0.347265 z m -1.008724,5.653918 -0.283187,0.243913 c -0.155774,0.134274 -0.375842,0.322039 -0.489376,0.417029 l -0.206705,0.172599 0.321427,0.360701 c 1.74824,1.960975 2.33062,4.7307 1.493966,7.10861 -0.382218,1.086324 -0.837208,1.847089 -1.782837,2.982247 -0.900878,1.08143 -1.543052,1.66414 -4.045748,3.671611 -1.796849,1.441287 -2.299162,1.867861 -3.507796,2.978113 -1.611469,1.480284 -3.390773,3.271651 -4.243152,4.27209 -1.033774,1.21336 -3.981152,4.894707 -3.981152,4.972307 0,0.05532 1.026197,0.523498 1.142049,0.520898 0.02395,-5.08e-4 0.291536,-0.304798 0.594795,-0.675928 0.806464,-0.98693 1.289195,-1.550821 1.348755,-1.574581 0.02885,-0.01151 0.05271,0.644083 0.05271,1.456759 v 1.477946 l 0.517798,0.161747 c 0.28482,0.0891 0.567469,0.177047 0.627869,0.195337 0.10335,0.03131 0.109554,-0.11521 0.109554,-2.4722 v -2.505791 l 0.61805,-0.715718 c 0.339758,-0.393641 0.747987,-0.856776 0.907438,-1.029395 l 0.289905,-0.313676 0.0026,3.741891 0.0026,3.74189 0.517797,0.102836 c 0.28482,0.05652 0.567469,0.102862 0.627869,0.102836 0.103444,-5.1e-5 0.110071,-0.253967 0.110071,-4.445206 v -4.44469 l 0.643371,-0.625285 c 0.353867,-0.343995 0.882511,-0.845761 1.175123,-1.115177 0.457958,-0.421659 0.538926,-0.473941 0.580326,-0.375171 0.02644,0.0631 0.229645,0.84905 0.451652,1.746663 0.222007,0.897613 0.424275,1.688466 0.449585,1.757516 0.05247,0.143229 0.360591,0.538087 0.79685,1.021643 l 0.299207,0.331762 -0.920357,0.986503 c -0.506035,0.542718 -0.97256,1.071551 -1.03663,1.175122 -0.107346,0.173527 -0.116788,0.35194 -0.116788,2.272213 v 2.084111 l 0.329695,0.02274 -10e-4,5.17e-4 c 0.181248,0.01268 0.463886,0.02822 0.627868,0.03462 l 0.298174,0.01137 V 80.10002 78.239669 l 0.353983,-0.415479 c 0.194602,-0.228298 0.577695,-0.651338 0.851111,-0.940511 l 0.49661,-0.526066 0.425814,0.463021 c 0.234054,0.254647 0.613569,0.674864 0.84336,0.933793 l 0.417545,0.470772 10e-4,1.876888 5.16e-4,1.876372 0.605131,-0.04238 c 0.332965,-0.02342 0.62569,-0.05469 0.65009,-0.06976 0.04888,-0.0302 0.01495,-3.766581 -0.03721,-4.100008 -0.03356,-0.214576 -0.59853,-0.89548 -1.573547,-1.896009 l -0.460437,-0.472322 0.469738,-0.532267 c 0.258092,-0.292766 0.524996,-0.645322 0.593246,-0.783415 0.06826,-0.138093 0.312497,-0.999736 0.542602,-1.914612 0.230107,-0.91487 0.427984,-1.674162 0.440284,-1.687752 0.03134,-0.03462 0.676758,0.538927 1.579748,1.404048 l 0.768429,0.735873 v 4.486031 c 0,4.242906 0.0057,4.484185 0.109554,4.453475 0.10112,-0.02989 1.12872,-0.22686 1.18339,-0.22686 0.01314,0 0.03141,-1.673626 0.04031,-3.719153 l 0.01602,-3.719152 0.714685,0.81597 c 0.392958,0.448811 0.780633,0.902938 0.861963,1.009241 l 0.148312,0.19327 0.0067,2.490287 c 0.0038,1.369585 0.02624,2.490288 0.05013,2.490288 0.02389,0 0.319161,-0.08634 0.65629,-0.19172 l 0.6134,-0.19172 -0.0124,-1.441772 c -0.0068,-0.793088 0.0021,-1.456819 0.01964,-1.474329 0.01755,-0.01755 0.433793,0.465476 0.925525,1.07332 0.49174,0.607841 0.931158,1.119621 0.976168,1.136881 0.104101,0.03995 1.160486,-0.425513 1.158586,-0.510563 -0.0021,-0.103437 -2.8713,-3.662774 -4.149618,-5.148006 -1.299013,-1.509273 -3.634956,-3.781809 -5.788794,-5.631698 l -0.929142,-0.7984 -0.481624,0.418579 c -0.264898,0.230209 -0.488611,0.447888 -0.496611,0.484208 -0.008,0.0363 0.199493,0.235301 0.460437,0.44235 0.402335,0.319243 0.470248,0.400587 0.447518,0.533818 -0.092,0.539851 -1.029427,3.84223 -1.149284,4.048848 -0.08011,0.138092 -0.261221,0.36384 -0.402559,0.501778 l -0.256832,0.251148 -0.218591,-0.251148 C 42.022479,73.468655 42.097565,73.665352 41.424862,71.03029 l -0.394808,-1.545642 0.460953,-0.384473 c 0.253397,-0.211466 0.977284,-0.798784 1.608688,-1.305347 2.577367,-2.067758 3.586401,-3.080443 4.788338,-4.803841 l 0.188619,-0.269751 0.03152,3.345016 0.03101,3.345015 0.595829,0.593762 c 0.327599,0.326507 0.618789,0.593763 0.646989,0.593763 0.0282,0 0.04783,-0.515611 0.04393,-1.145667 -0.0038,-0.63005 -0.005,-1.163437 -0.0031,-1.185457 0.0021,-0.022 0.208593,0.163903 0.458887,0.413411 0.538846,0.537168 1.005009,0.85783 1.593701,1.096057 l 0.430465,0.17415 0.03152,0.998388 c 0.01727,0.549113 0.05747,1.041187 0.08992,1.092957 0.153862,0.245716 5.865738,6.151046 5.949508,6.151046 0.128756,0 1.055503,-0.599987 1.039213,-0.672827 -0.01683,-0.07528 -2.533533,-2.723117 -4.677751,-4.921147 l -1.083138,-1.11001 v -0.602547 c 0,-0.331394 0.02165,-0.601263 0.04754,-0.599963 0.02589,0.0013 0.626037,0.152422 1.333768,0.335896 l 1.286743,0.333313 0.01705,1.060918 0.01705,1.060917 0.609265,0.611849 c 0.335173,0.336601 0.624438,0.611849 0.642338,0.611849 0.01797,-2.06e-4 0.04228,-0.958473 0.05426,-2.129069 0.02061,-2.01791 0.01583,-2.131127 -0.09405,-2.188497 -0.17345,-0.09054 -1.055895,-0.334947 -3.007051,-0.832508 -1.96035,-0.49991 -2.394514,-0.635844 -2.758488,-0.864546 -0.729626,-0.458444 -1.592544,-1.549129 -1.87017,-2.363164 -0.06766,-0.198425 -0.16453,-2.920752 -0.10387,-2.920752 0.0191,5.8e-5 0.150978,0.162708 0.292489,0.361219 0.437386,0.613546 0.879812,1.061548 1.538924,1.558044 0.670815,0.505327 1.117439,0.742948 2.179712,1.159619 1.009828,0.396113 3.368191,1.593423 4.152201,2.107882 1.029659,0.675658 1.277208,1.155095 1.971456,3.820955 0.174434,0.669839 0.354307,1.219028 0.441317,1.349272 0.08073,0.120836 0.595235,0.684795 1.143599,1.253154 l 0.996838,1.033528 0.512114,-0.405143 0.512113,-0.404627 -0.296622,-0.313675 C 62.710463,74.351301 62.280555,73.905535 61.918183,73.532463 61.555812,73.159395 61.19808,72.752891 61.1234,72.629159 c -0.121641,-0.201556 -0.323053,-1.002166 -0.264583,-1.051616 0.01283,-0.01085 0.617123,0.06852 1.34307,0.176217 l 1.319816,0.195853 0.500745,0.340031 c 0.818793,0.556053 0.870803,0.593072 1.014408,0.716752 0.13748,0.118408 0.138758,0.117568 0.612366,-0.307991 0.26088,-0.234415 0.473873,-0.446893 0.473873,-0.472323 0,-0.05339 -1.013362,-0.787425 -1.673283,-1.211812 -0.518958,-0.333738 -0.546791,-0.340298 -2.546098,-0.609265 l -1.488798,-0.199988 -0.100769,-0.348299 c -0.116463,-0.400621 -0.301123,-0.816477 -0.515731,-1.16272 -0.08228,-0.132722 -0.140331,-0.245864 -0.129191,-0.251664 0.01112,-0.0057 0.203996,-0.100772 0.428398,-0.211357 0.2244,-0.110584 0.577302,-0.295827 0.784448,-0.411344 0.207139,-0.115505 0.836292,-0.447264 1.398364,-0.737423 l 1.02216,-0.527616 2.100647,2.10013 2.100647,2.099614 0.392224,-0.435116 c 0.215903,-0.239225 0.392741,-0.467799 0.392741,-0.507979 0,-0.04017 -0.741199,-0.829609 -1.647445,-1.754415 -0.906242,-0.924796 -1.647961,-1.699902 -1.647961,-1.722892 0,-0.02299 1.343144,-0.04066 2.984831,-0.03876 l 2.98483,0.0036 0.404627,-0.620118 c 0.222593,-0.341031 0.405137,-0.637951 0.405143,-0.659391 0,-0.02144 -3.792082,-0.03876 -8.426876,-0.03876 -8.81678,0 -8.902363,-0.0027 -9.752893,-0.274919 -2.328711,-0.745226 -4.166671,-3.374696 -4.166671,-5.96191 -3e-5,-0.298272 -0.02924,-0.851448 -0.06511,-1.229382 C 49.16712,55.466213 48.506496,53.91639 47.26895,52.604518 Z M 26.750822,66.314815 c 1.027096,0.0088 1.895605,0.0155 1.930115,0.0155 0.03453,-1.61e-4 -0.274366,0.185568 -0.68678,0.412378 -0.412417,0.226817 -0.826341,0.466711 -0.919841,0.533301 -0.09351,0.06655 -0.208344,0.118438 -0.254764,0.115238 -0.123174,-0.0082 -1.892463,-0.961555 -1.916163,-1.032495 -0.01254,-0.03758 0.679122,-0.05396 1.847433,-0.04393 z m 31.530892,5.17e-4 c 0.890133,-9.01e-4 1.986896,0.01026 2.349727,0.03152 0.250744,0.01469 0.249762,0.01515 -0.439766,0.384472 -0.379764,0.203404 -0.831454,0.448053 -1.004073,0.544153 -0.308317,0.171649 -0.316615,0.172848 -0.470773,0.06046 -0.08631,-0.06292 -0.50313,-0.303204 -0.926041,-0.534335 -0.422919,-0.231125 -0.76892,-0.439257 -0.768946,-0.461987 0.01975,-0.01541 0.579909,-0.0236 1.259872,-0.02429 z" />
    </g>
  </g>
</svg>
